<svg width="672" height="437" viewBox="0 0 672 437" fill="none" xmlns="http://www.w3.org/2000/svg">
<g filter="url(#filter0_d)">
<rect y="80" width="247" height="344" rx="8" fill="#D4DFE6"/>
</g>
<path d="M96.972 388.534V390.352H99.348C98.754 392.368 97.836 394.15 96.576 395.698L97.386 397.75C98.196 396.49 98.88 395.122 99.438 393.646V401.8H101.31V392.944C101.688 393.574 102.12 394.348 102.624 395.248L103.722 393.592C102.912 392.656 102.102 391.792 101.31 391.018V390.352H103.326V388.534H101.31V385.222H99.438V388.534H96.972ZM102.21 400.648L103.758 402.016C104.604 400.684 105.18 399.28 105.486 397.84C105.81 396.4 105.972 394.672 105.972 392.638V387.544H108.528V399.658C108.528 400.846 109.212 401.458 110.598 401.458H111.408C112.038 401.458 112.506 401.332 112.794 401.098C113.082 400.81 113.262 400.342 113.334 399.658C113.406 398.974 113.46 397.93 113.46 396.562L111.732 396.022C111.732 397.93 111.696 399.028 111.624 399.28C111.588 399.406 111.552 399.514 111.48 399.586C111.408 399.658 111.3 399.694 111.156 399.694H110.616C110.49 399.694 110.436 399.604 110.436 399.442V385.78H104.1V392.638C104.1 394.672 103.974 396.202 103.74 397.228C103.452 398.416 102.93 399.568 102.21 400.648ZM121.38 394.942C121.164 397.426 119.958 399.19 117.726 400.216L118.752 401.854C120.588 400.918 121.866 399.586 122.622 397.876H127.932C127.842 398.866 127.788 399.46 127.752 399.64C127.68 399.82 127.536 399.946 127.32 400.018C127.068 400.09 126.51 400.144 125.628 400.144C125.232 400.144 124.854 400.126 124.458 400.09L124.962 401.782H125.142C126.888 401.782 128.004 401.692 128.49 401.548C128.958 401.404 129.282 401.116 129.444 400.684C129.588 400.252 129.732 398.758 129.84 396.184H123.126C123.198 395.788 123.252 395.374 123.288 394.942H131.046V393.178H125.556C125.412 392.674 125.268 392.206 125.124 391.792L123.126 392.116C123.288 392.44 123.432 392.8 123.576 393.178H118.788V394.942H121.38ZM128.346 388.174V389.884H118.284V388.174H128.346ZM118.284 391.612H130.2V386.428H124.332C124.17 385.924 124.008 385.456 123.846 385.024L121.812 385.348C121.974 385.672 122.136 386.032 122.28 386.428H116.394V392.926C116.376 396.076 115.764 398.65 114.54 400.63L115.944 401.89C117.492 399.388 118.266 396.4 118.284 392.926V391.612ZM142.908 387.148L137.994 400H140.244L141.414 396.778H146.796L147.966 400H150.216L145.302 387.148H142.908ZM142.044 395.05L144.078 389.416H144.15L146.166 395.05H142.044Z" fill="#566270" fill-opacity="0.6"/>
<rect x="13" y="194" width="221" height="74" rx="8" fill="#8EC0E4"/>
<rect x="13" y="101" width="221" height="74" rx="8" fill="#8EC0E4"/>
<rect x="13" y="286" width="221" height="74" rx="8" fill="#8EC0E4"/>
<path d="M97.576 132.336L96.244 132.984C96.568 133.506 96.892 134.082 97.18 134.73H94.714V136.512H104.92V134.73H102.382C102.742 134.1 103.066 133.416 103.354 132.66L102.454 132.336H104.596V130.644H100.69C100.51 130.068 100.348 129.528 100.168 129.06L98.224 129.384C98.44 129.78 98.62 130.194 98.8 130.644H95.146V132.336H97.576ZM98.962 134.73C98.602 133.866 98.224 133.074 97.81 132.336H101.482C101.176 133.164 100.816 133.974 100.402 134.73H98.962ZM90.952 145.71C92.176 145.71 92.806 145.098 92.806 143.874V138.906C93.22 138.708 93.634 138.51 94.066 138.294V136.386C93.652 136.602 93.238 136.818 92.806 137.034V134.28H94.102V132.462H92.806V129.276H90.898V132.462H88.9V134.28H90.898V137.826C90.124 138.114 89.332 138.33 88.522 138.51L89.008 140.4C89.638 140.184 90.268 139.968 90.898 139.734V143.388C90.898 143.784 90.7 144 90.304 144C89.872 144 89.422 143.964 88.954 143.892L89.368 145.71H90.952ZM97.972 136.71C97.828 137.124 97.648 137.556 97.432 138.024H94.48V139.824H96.532C96.172 140.436 95.794 141.084 95.362 141.75C96.514 142.2 97.576 142.65 98.584 143.082C97.522 143.568 96.1 143.964 94.336 144.288L95.056 145.98C97.558 145.476 99.412 144.828 100.618 144C102.022 144.648 103.174 145.278 104.11 145.854L105.136 144.36C104.11 143.784 103.048 143.262 101.95 142.776C102.634 141.948 103.12 140.976 103.39 139.824H105.226V138.024H99.34C99.484 137.664 99.646 137.304 99.79 136.926L97.972 136.71ZM101.626 139.824C101.338 140.688 100.87 141.408 100.24 142.02C99.394 141.66 98.53 141.318 97.666 141.012C97.918 140.634 98.17 140.238 98.422 139.824H101.626ZM113.938 133.578C112.75 138.114 110.284 141.588 106.558 144.036L107.71 145.656C111.31 143.316 113.704 140.004 114.928 135.738L114.982 135.9C116.908 140.724 119.266 143.982 122.056 145.638L123.226 144.144C120.526 142.416 118.33 139.464 116.62 135.288C115.432 132.282 114.1 130.248 112.624 129.204L111.058 130.212C112.174 131.004 113.128 132.12 113.938 133.578ZM132.226 141.696L133.468 140.454C132.82 139.446 132.19 138.528 131.578 137.7C131.992 136.224 132.334 134.604 132.604 132.804L130.876 132.498C130.714 133.686 130.498 134.838 130.246 135.918C129.634 135.126 129.058 134.442 128.518 133.866L127.456 134.892V131.598H138.544V141.174C137.896 140.094 137.266 139.086 136.654 138.168C137.158 136.584 137.572 134.802 137.878 132.858L136.114 132.552C135.916 133.866 135.664 135.108 135.358 136.278C134.746 135.414 134.17 134.694 133.648 134.082L132.496 135.198C133.27 136.206 134.026 137.232 134.746 138.294C134.134 139.986 133.378 141.462 132.478 142.758L133.666 144.234C134.53 143.082 135.286 141.732 135.934 140.148C136.438 140.94 136.906 141.75 137.374 142.578L138.544 141.408V143.442C138.544 143.838 138.328 144.036 137.914 144.036L136.258 143.946L136.726 145.764H138.526C139.768 145.764 140.398 145.134 140.398 143.874V129.798H125.602V145.89H127.456V135.09C128.212 136.008 128.968 136.962 129.688 137.934C129.148 139.59 128.464 141.066 127.636 142.326L128.824 143.802C129.634 142.65 130.336 141.282 130.93 139.698C131.362 140.346 131.794 141.012 132.226 141.696ZM147.886 129.294L146.158 130.122C146.788 130.896 147.382 131.778 147.958 132.75H144.214V134.586H150.046V135.018C150.01 135.846 149.92 136.638 149.776 137.358H143.188V139.194H149.236C149.02 139.734 148.75 140.238 148.444 140.706C147.472 142.056 145.618 143.19 142.846 144.09L143.872 145.728C146.644 144.864 148.642 143.622 149.866 142.002C150.298 141.39 150.676 140.688 151 139.932C152.062 142.398 154.438 144.396 158.146 145.908L159.262 144.126C155.698 142.902 153.466 141.264 152.602 139.194H158.812V137.358H151.702C151.828 136.638 151.918 135.846 151.954 135.018V134.586H157.768V132.75H154.438C154.996 131.832 155.464 130.806 155.86 129.672L154.024 129.168C153.538 130.536 152.98 131.742 152.332 132.75H148.786L149.83 132.228C149.2 131.166 148.552 130.194 147.886 129.294Z" fill="#566270" fill-opacity="0.6"/>
<path d="M100.942 238.37V240.206H113.812V238.37H110.374C111.382 235.832 112.228 232.97 112.912 229.766L111.04 229.244C110.266 232.844 109.366 235.886 108.34 238.37H100.942ZM103.282 230.126L101.662 230.666C102.382 232.736 102.958 234.896 103.426 237.146L105.208 236.678C104.632 234.212 104.002 232.034 103.282 230.126ZM106.72 228.812L105.1 229.352C105.712 231.494 106.198 233.726 106.594 236.03L108.376 235.58C107.89 233.042 107.332 230.792 106.72 228.812ZM106.846 224.096L104.74 224.456C105.028 224.87 105.298 225.32 105.55 225.806H99.052V231.296C99.016 234.788 98.548 237.524 97.648 239.486L99.25 240.908C100.33 238.496 100.906 235.292 100.96 231.296V227.624H114.082V225.806H107.638C107.386 225.176 107.116 224.6 106.846 224.096ZM119.158 230.864H123.118V233.456H119.158V230.864ZM119.068 235.184H123.118V240.26H125.026V235.184H129.31V237.686C129.31 238.37 129.022 238.73 128.482 238.73C127.87 238.73 127.222 238.694 126.502 238.622L127.006 240.458H129.076C130.498 240.458 131.218 239.756 131.218 238.37V224.78H117.268V233.69C117.232 236.03 116.692 237.956 115.63 239.468L117.07 240.764C118.168 239.288 118.834 237.416 119.068 235.184ZM129.31 233.456H125.026V230.864H129.31V233.456ZM129.31 229.136H125.026V226.616H129.31V229.136ZM123.118 226.616V229.136H119.158V226.616H123.118ZM138.76 230.954V232.574H148.678V230.954H138.76ZM137.5 233.87V235.562H141.082C139.966 237.254 139.048 238.316 138.364 238.73C138.274 238.784 138.148 238.838 137.986 238.892L138.4 240.458C141.712 240.242 144.772 239.936 147.58 239.558C147.886 239.99 148.174 240.422 148.444 240.854L149.938 239.792C149.182 238.676 148.084 237.362 146.662 235.85L145.294 236.696C145.69 237.164 146.086 237.632 146.464 238.1C144.52 238.388 142.558 238.622 140.614 238.784C141.334 238.046 142.162 236.966 143.08 235.562H149.848V233.87H137.5ZM147.256 226.49V228.038H137.32V226.49H147.256ZM137.32 229.73H149.11V224.78H135.466V230.972C135.448 234.464 134.872 237.326 133.738 239.54L135.124 240.782C136.564 238.046 137.302 234.77 137.32 230.972V229.73Z" fill="#566270" fill-opacity="0.6"/>
<path d="M111.26 319.148V332H115.958C118.046 332 119.612 331.424 120.692 330.272C121.718 329.174 122.24 327.608 122.24 325.574C122.24 323.522 121.718 321.956 120.692 320.876C119.612 319.724 118.046 319.148 115.958 319.148H111.26ZM113.366 320.948H115.562C117.164 320.948 118.334 321.308 119.072 322.046C119.792 322.766 120.152 323.954 120.152 325.574C120.152 327.158 119.792 328.328 119.072 329.084C118.334 329.822 117.164 330.2 115.562 330.2H113.366V320.948ZM124.215 319.148V332H130.119C131.487 332 132.567 331.748 133.323 331.244C134.205 330.632 134.655 329.678 134.655 328.382C134.655 327.518 134.439 326.816 134.025 326.312C133.593 325.79 132.963 325.448 132.117 325.286C132.765 325.034 133.251 324.692 133.593 324.224C133.935 323.72 134.115 323.108 134.115 322.388C134.115 321.416 133.773 320.642 133.107 320.066C132.387 319.454 131.379 319.148 130.101 319.148H124.215ZM126.321 320.876H129.579C130.443 320.876 131.055 321.02 131.451 321.308C131.811 321.578 132.009 322.028 132.009 322.64C132.009 323.306 131.811 323.792 131.451 324.098C131.073 324.386 130.443 324.548 129.543 324.548H126.321V320.876ZM126.321 326.276H129.867C130.803 326.276 131.487 326.438 131.919 326.762C132.333 327.086 132.549 327.608 132.549 328.346C132.549 329.066 132.261 329.57 131.685 329.894C131.235 330.146 130.605 330.272 129.813 330.272H126.321V326.276Z" fill="#566270" fill-opacity="0.6"/>
<path d="M122.293 209.707C122.683 210.098 123.317 210.098 123.707 209.707L130.071 203.343C130.462 202.953 130.462 202.319 130.071 201.929C129.681 201.538 129.047 201.538 128.657 201.929L123 207.586L117.343 201.929C116.953 201.538 116.319 201.538 115.929 201.929C115.538 202.319 115.538 202.953 115.929 203.343L122.293 209.707ZM122 162V209H124V162H122Z" fill="#566270" fill-opacity="0.6"/>
<path d="M122.293 306.707C122.683 307.098 123.317 307.098 123.707 306.707L130.071 300.343C130.462 299.953 130.462 299.319 130.071 298.929C129.681 298.538 129.047 298.538 128.657 298.929L123 304.586L117.343 298.929C116.953 298.538 116.319 298.538 115.929 298.929C115.538 299.319 115.538 299.953 115.929 300.343L122.293 306.707ZM122 248V306H124V248H122Z" fill="#566270" fill-opacity="0.6"/>
<rect x="68" y="11" width="527" height="51" rx="8" fill="#D4DFE6"/>
<path d="M298.946 30.168C296.858 32.364 294.248 34.182 291.116 35.658L292.034 37.332C292.934 36.9 293.78 36.432 294.59 35.928V37.566H298.658V40.086H293.636V41.904H298.658V44.568H292.034V46.404H307.208V44.568H300.566V41.904H305.57V40.086H300.566V37.566H304.634V35.946C305.426 36.432 306.254 36.882 307.118 37.296L308.054 35.622C305.12 34.29 302.528 32.472 300.278 30.168H298.946ZM294.878 35.748C296.714 34.596 298.298 33.3 299.612 31.878C300.98 33.336 302.546 34.632 304.328 35.748H294.878ZM311.168 37.782V42.498H316.658V43.2H310.826V44.406H316.658V45.162H309.494V46.566H325.73V45.162H318.53V44.406H324.434V43.2H318.53V42.498H324.092V37.782H311.168ZM322.31 41.418H318.53V40.644H322.31V41.418ZM316.658 41.418H312.95V40.644H316.658V41.418ZM312.95 39.636V38.88H316.658V39.636H312.95ZM318.53 38.88H322.31V39.636H318.53V38.88ZM311.564 30.474V35.1H323.714V30.474H311.564ZM321.914 34.056H313.364V33.318H321.914V34.056ZM313.364 32.274V31.536H321.914V32.274H313.364ZM309.494 35.784V37.116H325.73V35.784H309.494ZM330.77 36.864H334.73V39.456H330.77V36.864ZM330.68 41.184H334.73V46.26H336.638V41.184H340.922V43.686C340.922 44.37 340.634 44.73 340.094 44.73C339.482 44.73 338.834 44.694 338.114 44.622L338.618 46.458H340.688C342.11 46.458 342.83 45.756 342.83 44.37V30.78H328.88V39.69C328.844 42.03 328.304 43.956 327.242 45.468L328.682 46.764C329.78 45.288 330.446 43.416 330.68 41.184ZM340.922 39.456H336.638V36.864H340.922V39.456ZM340.922 35.136H336.638V32.616H340.922V35.136ZM334.73 32.616V35.136H330.77V32.616H334.73ZM358.598 34.074V36.936H348.986V34.074H358.598ZM348.968 38.772H360.506V32.238H354.8C354.512 31.428 354.242 30.708 353.954 30.06L351.938 30.384C352.28 30.96 352.586 31.572 352.874 32.238H347.132V38.214C347.114 41.274 346.43 43.776 345.098 45.702L346.502 46.98C348.05 44.676 348.86 41.94 348.968 38.772Z" fill="#566270" fill-opacity="0.6"/>
<path d="M122.293 110.707C122.683 111.098 123.317 111.098 123.707 110.707L130.071 104.343C130.462 103.953 130.462 103.319 130.071 102.929C129.681 102.538 129.047 102.538 128.657 102.929L123 108.586L117.343 102.929C116.953 102.538 116.319 102.538 115.929 102.929C115.538 103.319 115.538 103.953 115.929 104.343L122.293 110.707ZM122 44V110H124V44H122Z" fill="#566270" fill-opacity="0.6"/>
<g filter="url(#filter1_d)">
<rect x="417" y="80" width="247" height="344" rx="8" fill="#D4DFE6"/>
</g>
<path d="M513.972 388.534V390.352H516.348C515.754 392.368 514.836 394.15 513.576 395.698L514.386 397.75C515.196 396.49 515.88 395.122 516.438 393.646V401.8H518.31V392.944C518.688 393.574 519.12 394.348 519.624 395.248L520.722 393.592C519.912 392.656 519.102 391.792 518.31 391.018V390.352H520.326V388.534H518.31V385.222H516.438V388.534H513.972ZM519.21 400.648L520.758 402.016C521.604 400.684 522.18 399.28 522.486 397.84C522.81 396.4 522.972 394.672 522.972 392.638V387.544H525.528V399.658C525.528 400.846 526.212 401.458 527.598 401.458H528.408C529.038 401.458 529.506 401.332 529.794 401.098C530.082 400.81 530.262 400.342 530.334 399.658C530.406 398.974 530.46 397.93 530.46 396.562L528.732 396.022C528.732 397.93 528.696 399.028 528.624 399.28C528.588 399.406 528.552 399.514 528.48 399.586C528.408 399.658 528.3 399.694 528.156 399.694H527.616C527.49 399.694 527.436 399.604 527.436 399.442V385.78H521.1V392.638C521.1 394.672 520.974 396.202 520.74 397.228C520.452 398.416 519.93 399.568 519.21 400.648ZM538.38 394.942C538.164 397.426 536.958 399.19 534.726 400.216L535.752 401.854C537.588 400.918 538.866 399.586 539.622 397.876H544.932C544.842 398.866 544.788 399.46 544.752 399.64C544.68 399.82 544.536 399.946 544.32 400.018C544.068 400.09 543.51 400.144 542.628 400.144C542.232 400.144 541.854 400.126 541.458 400.09L541.962 401.782H542.142C543.888 401.782 545.004 401.692 545.49 401.548C545.958 401.404 546.282 401.116 546.444 400.684C546.588 400.252 546.732 398.758 546.84 396.184H540.126C540.198 395.788 540.252 395.374 540.288 394.942H548.046V393.178H542.556C542.412 392.674 542.268 392.206 542.124 391.792L540.126 392.116C540.288 392.44 540.432 392.8 540.576 393.178H535.788V394.942H538.38ZM545.346 388.174V389.884H535.284V388.174H545.346ZM535.284 391.612H547.2V386.428H541.332C541.17 385.924 541.008 385.456 540.846 385.024L538.812 385.348C538.974 385.672 539.136 386.032 539.28 386.428H533.394V392.926C533.376 396.076 532.764 398.65 531.54 400.63L532.944 401.89C534.492 399.388 535.266 396.4 535.284 392.926V391.612ZM556.254 387.148V400H562.158C563.526 400 564.606 399.748 565.362 399.244C566.244 398.632 566.694 397.678 566.694 396.382C566.694 395.518 566.478 394.816 566.064 394.312C565.632 393.79 565.002 393.448 564.156 393.286C564.804 393.034 565.29 392.692 565.632 392.224C565.974 391.72 566.154 391.108 566.154 390.388C566.154 389.416 565.812 388.642 565.146 388.066C564.426 387.454 563.418 387.148 562.14 387.148H556.254ZM558.36 388.876H561.618C562.482 388.876 563.094 389.02 563.49 389.308C563.85 389.578 564.048 390.028 564.048 390.64C564.048 391.306 563.85 391.792 563.49 392.098C563.112 392.386 562.482 392.548 561.582 392.548H558.36V388.876ZM558.36 394.276H561.906C562.842 394.276 563.526 394.438 563.958 394.762C564.372 395.086 564.588 395.608 564.588 396.346C564.588 397.066 564.3 397.57 563.724 397.894C563.274 398.146 562.644 398.272 561.852 398.272H558.36V394.276Z" fill="#566270" fill-opacity="0.6"/>
<rect x="430" y="194" width="221" height="74" rx="8" fill="#8EC0E4"/>
<rect x="430" y="101" width="221" height="74" rx="8" fill="#8EC0E4"/>
<path d="M514.576 132.336L513.244 132.984C513.568 133.506 513.892 134.082 514.18 134.73H511.714V136.512H521.92V134.73H519.382C519.742 134.1 520.066 133.416 520.354 132.66L519.454 132.336H521.596V130.644H517.69C517.51 130.068 517.348 129.528 517.168 129.06L515.224 129.384C515.44 129.78 515.62 130.194 515.8 130.644H512.146V132.336H514.576ZM515.962 134.73C515.602 133.866 515.224 133.074 514.81 132.336H518.482C518.176 133.164 517.816 133.974 517.402 134.73H515.962ZM507.952 145.71C509.176 145.71 509.806 145.098 509.806 143.874V138.906C510.22 138.708 510.634 138.51 511.066 138.294V136.386C510.652 136.602 510.238 136.818 509.806 137.034V134.28H511.102V132.462H509.806V129.276H507.898V132.462H505.9V134.28H507.898V137.826C507.124 138.114 506.332 138.33 505.522 138.51L506.008 140.4C506.638 140.184 507.268 139.968 507.898 139.734V143.388C507.898 143.784 507.7 144 507.304 144C506.872 144 506.422 143.964 505.954 143.892L506.368 145.71H507.952ZM514.972 136.71C514.828 137.124 514.648 137.556 514.432 138.024H511.48V139.824H513.532C513.172 140.436 512.794 141.084 512.362 141.75C513.514 142.2 514.576 142.65 515.584 143.082C514.522 143.568 513.1 143.964 511.336 144.288L512.056 145.98C514.558 145.476 516.412 144.828 517.618 144C519.022 144.648 520.174 145.278 521.11 145.854L522.136 144.36C521.11 143.784 520.048 143.262 518.95 142.776C519.634 141.948 520.12 140.976 520.39 139.824H522.226V138.024H516.34C516.484 137.664 516.646 137.304 516.79 136.926L514.972 136.71ZM518.626 139.824C518.338 140.688 517.87 141.408 517.24 142.02C516.394 141.66 515.53 141.318 514.666 141.012C514.918 140.634 515.17 140.238 515.422 139.824H518.626ZM530.938 133.578C529.75 138.114 527.284 141.588 523.558 144.036L524.71 145.656C528.31 143.316 530.704 140.004 531.928 135.738L531.982 135.9C533.908 140.724 536.266 143.982 539.056 145.638L540.226 144.144C537.526 142.416 535.33 139.464 533.62 135.288C532.432 132.282 531.1 130.248 529.624 129.204L528.058 130.212C529.174 131.004 530.128 132.12 530.938 133.578ZM549.226 141.696L550.468 140.454C549.82 139.446 549.19 138.528 548.578 137.7C548.992 136.224 549.334 134.604 549.604 132.804L547.876 132.498C547.714 133.686 547.498 134.838 547.246 135.918C546.634 135.126 546.058 134.442 545.518 133.866L544.456 134.892V131.598H555.544V141.174C554.896 140.094 554.266 139.086 553.654 138.168C554.158 136.584 554.572 134.802 554.878 132.858L553.114 132.552C552.916 133.866 552.664 135.108 552.358 136.278C551.746 135.414 551.17 134.694 550.648 134.082L549.496 135.198C550.27 136.206 551.026 137.232 551.746 138.294C551.134 139.986 550.378 141.462 549.478 142.758L550.666 144.234C551.53 143.082 552.286 141.732 552.934 140.148C553.438 140.94 553.906 141.75 554.374 142.578L555.544 141.408V143.442C555.544 143.838 555.328 144.036 554.914 144.036L553.258 143.946L553.726 145.764H555.526C556.768 145.764 557.398 145.134 557.398 143.874V129.798H542.602V145.89H544.456V135.09C545.212 136.008 545.968 136.962 546.688 137.934C546.148 139.59 545.464 141.066 544.636 142.326L545.824 143.802C546.634 142.65 547.336 141.282 547.93 139.698C548.362 140.346 548.794 141.012 549.226 141.696ZM564.886 129.294L563.158 130.122C563.788 130.896 564.382 131.778 564.958 132.75H561.214V134.586H567.046V135.018C567.01 135.846 566.92 136.638 566.776 137.358H560.188V139.194H566.236C566.02 139.734 565.75 140.238 565.444 140.706C564.472 142.056 562.618 143.19 559.846 144.09L560.872 145.728C563.644 144.864 565.642 143.622 566.866 142.002C567.298 141.39 567.676 140.688 568 139.932C569.062 142.398 571.438 144.396 575.146 145.908L576.262 144.126C572.698 142.902 570.466 141.264 569.602 139.194H575.812V137.358H568.702C568.828 136.638 568.918 135.846 568.954 135.018V134.586H574.768V132.75H571.438C571.996 131.832 572.464 130.806 572.86 129.672L571.024 129.168C570.538 130.536 569.98 131.742 569.332 132.75H565.786L566.83 132.228C566.2 131.166 565.552 130.194 564.886 129.294Z" fill="#566270" fill-opacity="0.6"/>
<path d="M517.942 238.37V240.206H530.812V238.37H527.374C528.382 235.832 529.228 232.97 529.912 229.766L528.04 229.244C527.266 232.844 526.366 235.886 525.34 238.37H517.942ZM520.282 230.126L518.662 230.666C519.382 232.736 519.958 234.896 520.426 237.146L522.208 236.678C521.632 234.212 521.002 232.034 520.282 230.126ZM523.72 228.812L522.1 229.352C522.712 231.494 523.198 233.726 523.594 236.03L525.376 235.58C524.89 233.042 524.332 230.792 523.72 228.812ZM523.846 224.096L521.74 224.456C522.028 224.87 522.298 225.32 522.55 225.806H516.052V231.296C516.016 234.788 515.548 237.524 514.648 239.486L516.25 240.908C517.33 238.496 517.906 235.292 517.96 231.296V227.624H531.082V225.806H524.638C524.386 225.176 524.116 224.6 523.846 224.096ZM536.158 230.864H540.118V233.456H536.158V230.864ZM536.068 235.184H540.118V240.26H542.026V235.184H546.31V237.686C546.31 238.37 546.022 238.73 545.482 238.73C544.87 238.73 544.222 238.694 543.502 238.622L544.006 240.458H546.076C547.498 240.458 548.218 239.756 548.218 238.37V224.78H534.268V233.69C534.232 236.03 533.692 237.956 532.63 239.468L534.07 240.764C535.168 239.288 535.834 237.416 536.068 235.184ZM546.31 233.456H542.026V230.864H546.31V233.456ZM546.31 229.136H542.026V226.616H546.31V229.136ZM540.118 226.616V229.136H536.158V226.616H540.118ZM555.76 230.954V232.574H565.678V230.954H555.76ZM554.5 233.87V235.562H558.082C556.966 237.254 556.048 238.316 555.364 238.73C555.274 238.784 555.148 238.838 554.986 238.892L555.4 240.458C558.712 240.242 561.772 239.936 564.58 239.558C564.886 239.99 565.174 240.422 565.444 240.854L566.938 239.792C566.182 238.676 565.084 237.362 563.662 235.85L562.294 236.696C562.69 237.164 563.086 237.632 563.464 238.1C561.52 238.388 559.558 238.622 557.614 238.784C558.334 238.046 559.162 236.966 560.08 235.562H566.848V233.87H554.5ZM564.256 226.49V228.038H554.32V226.49H564.256ZM554.32 229.73H566.11V224.78H552.466V230.972C552.448 234.464 551.872 237.326 550.738 239.54L552.124 240.782C553.564 238.046 554.302 234.77 554.32 230.972V229.73Z" fill="#566270" fill-opacity="0.6"/>
<path d="M539.293 209.707C539.683 210.098 540.317 210.098 540.707 209.707L547.071 203.343C547.462 202.953 547.462 202.319 547.071 201.929C546.681 201.538 546.047 201.538 545.657 201.929L540 207.586L534.343 201.929C533.953 201.538 533.319 201.538 532.929 201.929C532.538 202.319 532.538 202.953 532.929 203.343L539.293 209.707ZM539 162V209H541V162H539Z" fill="#566270" fill-opacity="0.6"/>
<rect x="429" y="290" width="221" height="74" rx="8" fill="#8EC0E4"/>
<path d="M528.26 319.148V332H532.958C535.046 332 536.612 331.424 537.692 330.272C538.718 329.174 539.24 327.608 539.24 325.574C539.24 323.522 538.718 321.956 537.692 320.876C536.612 319.724 535.046 319.148 532.958 319.148H528.26ZM530.366 320.948H532.562C534.164 320.948 535.334 321.308 536.072 322.046C536.792 322.766 537.152 323.954 537.152 325.574C537.152 327.158 536.792 328.328 536.072 329.084C535.334 329.822 534.164 330.2 532.562 330.2H530.366V320.948ZM541.215 319.148V332H547.119C548.487 332 549.567 331.748 550.323 331.244C551.205 330.632 551.655 329.678 551.655 328.382C551.655 327.518 551.439 326.816 551.025 326.312C550.593 325.79 549.963 325.448 549.117 325.286C549.765 325.034 550.251 324.692 550.593 324.224C550.935 323.72 551.115 323.108 551.115 322.388C551.115 321.416 550.773 320.642 550.107 320.066C549.387 319.454 548.379 319.148 547.101 319.148H541.215ZM543.321 320.876H546.579C547.443 320.876 548.055 321.02 548.451 321.308C548.811 321.578 549.009 322.028 549.009 322.64C549.009 323.306 548.811 323.792 548.451 324.098C548.073 324.386 547.443 324.548 546.543 324.548H543.321V320.876ZM543.321 326.276H546.867C547.803 326.276 548.487 326.438 548.919 326.762C549.333 327.086 549.549 327.608 549.549 328.346C549.549 329.066 549.261 329.57 548.685 329.894C548.235 330.146 547.605 330.272 546.813 330.272H543.321V326.276Z" fill="#566270" fill-opacity="0.6"/>
<path d="M539.293 306.707C539.683 307.098 540.317 307.098 540.707 306.707L547.071 300.343C547.462 299.953 547.462 299.319 547.071 298.929C546.681 298.538 546.047 298.538 545.657 298.929L540 304.586L534.343 298.929C533.953 298.538 533.319 298.538 532.929 298.929C532.538 299.319 532.538 299.953 532.929 300.343L539.293 306.707ZM539 248V306H541V248H539Z" fill="#566270" fill-opacity="0.6"/>
<path d="M212 326L222 331.774V320.226L212 326ZM451.002 326L441.002 320.226V331.774L451.002 326ZM221 327H442.002V325H221V327Z" fill="#6E7783" fill-opacity="0.4"/>
<path d="M539.293 110.707C539.683 111.098 540.317 111.098 540.707 110.707L547.071 104.343C547.462 103.953 547.462 103.319 547.071 102.929C546.681 102.538 546.047 102.538 545.657 102.929L540 108.586L534.343 102.929C533.953 102.538 533.319 102.538 532.929 102.929C532.538 103.319 532.538 103.953 532.929 104.343L539.293 110.707ZM539 44V110H541V44H539Z" fill="#566270" fill-opacity="0.6"/>
<path d="M314.06 320.8C315.668 321.424 317.228 322.24 318.764 323.272L319.232 322.528C317.816 321.616 316.244 320.836 314.54 320.164C314.648 319.996 314.756 319.816 314.864 319.624H319.076V318.808H315.224C315.488 318.064 315.632 317.212 315.668 316.264V314.848H314.828V316.264C314.792 317.212 314.624 318.064 314.312 318.808H308.936V319.624H313.892C313.772 319.816 313.652 319.996 313.508 320.164C312.62 321.124 311.06 321.904 308.828 322.48L309.308 323.212C311.504 322.636 313.088 321.832 314.06 320.8ZM310.532 316.492L310.1 317.14C310.916 317.464 311.72 317.92 312.488 318.496L312.932 317.812C312.212 317.308 311.408 316.864 310.532 316.492ZM311.612 314.776L311.168 315.424C312.008 315.76 312.836 316.228 313.64 316.828L314.084 316.144C313.34 315.604 312.512 315.148 311.612 314.776ZM318.872 313.372H314.528C314.372 312.904 314.216 312.484 314.06 312.124L313.172 312.268C313.352 312.604 313.52 312.964 313.664 313.372H309.104V315.676H309.944V314.176H318.032V315.676H318.872V313.372ZM324.44 313.096H320.984V322.228H321.824V321.136H323.6V321.94H324.44V313.096ZM321.824 320.332V317.44H323.6V320.332H321.824ZM321.824 316.636V313.888H323.6V316.636H321.824ZM326.168 316.672L325.46 317.116C326.18 318.22 326.744 319.228 327.164 320.128L327.884 319.624C327.488 318.784 326.912 317.8 326.168 316.672ZM328.904 323.08C329.648 323.08 330.02 322.696 330.02 321.94V315.232H331.496V314.404H330.02V312.292H329.144V314.404H324.992V315.232H329.144V321.724C329.144 322.096 328.964 322.288 328.616 322.288C327.98 322.288 327.32 322.264 326.624 322.24L326.804 323.08H328.904ZM341.768 323.152C342.464 323.152 342.812 322.756 342.812 321.976V312.664H333.188V323.188H334.052V313.504H341.948V321.784C341.948 322.144 341.792 322.324 341.492 322.324L339.932 322.288L340.172 323.152H341.768ZM334.928 314.884V315.688H341.084V314.884H334.928ZM335.6 316.984V320.848H340.412V316.984H335.6ZM339.572 320.08H336.44V317.764H339.572V320.08ZM349.628 312.172V316.108H347.384V313.108H346.508V316.108H344.672V316.948H349.7V320.572H350.564V316.948H355.328V316.108H350.504V314.452H354.14V313.624H350.504V312.172H349.628ZM353.54 317.824C352.22 320.884 349.484 322.42 345.332 322.42L345.644 323.248C349.916 323.236 352.82 321.568 354.332 318.244L353.54 317.824ZM347.552 317.488C346.856 318.544 345.992 319.468 344.972 320.26L345.512 320.956C346.568 320.128 347.444 319.156 348.164 318.04L347.552 317.488Z" fill="#566270" fill-opacity="0.6"/>
<defs>
<filter id="filter0_d" x="0" y="80" width="255" height="352" filterUnits="userSpaceOnUse" color-interpolation-filters="sRGB">
<feFlood flood-opacity="0" result="BackgroundImageFix"/>
<feColorMatrix in="SourceAlpha" type="matrix" values="0 0 0 0 0 0 0 0 0 0 0 0 0 0 0 0 0 0 127 0"/>
<feOffset dx="4" dy="4"/>
<feGaussianBlur stdDeviation="2"/>
<feColorMatrix type="matrix" values="0 0 0 0 0 0 0 0 0 0 0 0 0 0 0 0 0 0 0.25 0"/>
<feBlend mode="normal" in2="BackgroundImageFix" result="effect1_dropShadow"/>
<feBlend mode="normal" in="SourceGraphic" in2="effect1_dropShadow" result="shape"/>
</filter>
<filter id="filter1_d" x="417" y="80" width="255" height="352" filterUnits="userSpaceOnUse" color-interpolation-filters="sRGB">
<feFlood flood-opacity="0" result="BackgroundImageFix"/>
<feColorMatrix in="SourceAlpha" type="matrix" values="0 0 0 0 0 0 0 0 0 0 0 0 0 0 0 0 0 0 127 0"/>
<feOffset dx="4" dy="4"/>
<feGaussianBlur stdDeviation="2"/>
<feColorMatrix type="matrix" values="0 0 0 0 0 0 0 0 0 0 0 0 0 0 0 0 0 0 0.25 0"/>
<feBlend mode="normal" in2="BackgroundImageFix" result="effect1_dropShadow"/>
<feBlend mode="normal" in="SourceGraphic" in2="effect1_dropShadow" result="shape"/>
</filter>
</defs>
</svg>
