<svg width="672" height="427" viewBox="0 0 672 427" fill="none" xmlns="http://www.w3.org/2000/svg">
<g filter="url(#filter0_d)">
<rect y="70" width="247" height="344" rx="8" fill="#D4DFE6"/>
</g>
<path d="M96.972 378.534V380.352H99.348C98.754 382.368 97.836 384.15 96.576 385.698L97.386 387.75C98.196 386.49 98.88 385.122 99.438 383.646V391.8H101.31V382.944C101.688 383.574 102.12 384.348 102.624 385.248L103.722 383.592C102.912 382.656 102.102 381.792 101.31 381.018V380.352H103.326V378.534H101.31V375.222H99.438V378.534H96.972ZM102.21 390.648L103.758 392.016C104.604 390.684 105.18 389.28 105.486 387.84C105.81 386.4 105.972 384.672 105.972 382.638V377.544H108.528V389.658C108.528 390.846 109.212 391.458 110.598 391.458H111.408C112.038 391.458 112.506 391.332 112.794 391.098C113.082 390.81 113.262 390.342 113.334 389.658C113.406 388.974 113.46 387.93 113.46 386.562L111.732 386.022C111.732 387.93 111.696 389.028 111.624 389.28C111.588 389.406 111.552 389.514 111.48 389.586C111.408 389.658 111.3 389.694 111.156 389.694H110.616C110.49 389.694 110.436 389.604 110.436 389.442V375.78H104.1V382.638C104.1 384.672 103.974 386.202 103.74 387.228C103.452 388.416 102.93 389.568 102.21 390.648ZM121.38 384.942C121.164 387.426 119.958 389.19 117.726 390.216L118.752 391.854C120.588 390.918 121.866 389.586 122.622 387.876H127.932C127.842 388.866 127.788 389.46 127.752 389.64C127.68 389.82 127.536 389.946 127.32 390.018C127.068 390.09 126.51 390.144 125.628 390.144C125.232 390.144 124.854 390.126 124.458 390.09L124.962 391.782H125.142C126.888 391.782 128.004 391.692 128.49 391.548C128.958 391.404 129.282 391.116 129.444 390.684C129.588 390.252 129.732 388.758 129.84 386.184H123.126C123.198 385.788 123.252 385.374 123.288 384.942H131.046V383.178H125.556C125.412 382.674 125.268 382.206 125.124 381.792L123.126 382.116C123.288 382.44 123.432 382.8 123.576 383.178H118.788V384.942H121.38ZM128.346 378.174V379.884H118.284V378.174H128.346ZM118.284 381.612H130.2V376.428H124.332C124.17 375.924 124.008 375.456 123.846 375.024L121.812 375.348C121.974 375.672 122.136 376.032 122.28 376.428H116.394V382.926C116.376 386.076 115.764 388.65 114.54 390.63L115.944 391.89C117.492 389.388 118.266 386.4 118.284 382.926V381.612ZM142.908 377.148L137.994 390H140.244L141.414 386.778H146.796L147.966 390H150.216L145.302 377.148H142.908ZM142.044 385.05L144.078 379.416H144.15L146.166 385.05H142.044Z" fill="#566270" fill-opacity="0.6"/>
<rect x="13" y="184" width="221" height="74" rx="8" fill="#8EC0E4"/>
<rect x="13" y="91" width="221" height="74" rx="8" fill="#8EC0E4"/>
<rect x="13" y="276" width="221" height="74" rx="8" fill="#8EC0E4"/>
<path d="M97.576 122.336L96.244 122.984C96.568 123.506 96.892 124.082 97.18 124.73H94.714V126.512H104.92V124.73H102.382C102.742 124.1 103.066 123.416 103.354 122.66L102.454 122.336H104.596V120.644H100.69C100.51 120.068 100.348 119.528 100.168 119.06L98.224 119.384C98.44 119.78 98.62 120.194 98.8 120.644H95.146V122.336H97.576ZM98.962 124.73C98.602 123.866 98.224 123.074 97.81 122.336H101.482C101.176 123.164 100.816 123.974 100.402 124.73H98.962ZM90.952 135.71C92.176 135.71 92.806 135.098 92.806 133.874V128.906C93.22 128.708 93.634 128.51 94.066 128.294V126.386C93.652 126.602 93.238 126.818 92.806 127.034V124.28H94.102V122.462H92.806V119.276H90.898V122.462H88.9V124.28H90.898V127.826C90.124 128.114 89.332 128.33 88.522 128.51L89.008 130.4C89.638 130.184 90.268 129.968 90.898 129.734V133.388C90.898 133.784 90.7 134 90.304 134C89.872 134 89.422 133.964 88.954 133.892L89.368 135.71H90.952ZM97.972 126.71C97.828 127.124 97.648 127.556 97.432 128.024H94.48V129.824H96.532C96.172 130.436 95.794 131.084 95.362 131.75C96.514 132.2 97.576 132.65 98.584 133.082C97.522 133.568 96.1 133.964 94.336 134.288L95.056 135.98C97.558 135.476 99.412 134.828 100.618 134C102.022 134.648 103.174 135.278 104.11 135.854L105.136 134.36C104.11 133.784 103.048 133.262 101.95 132.776C102.634 131.948 103.12 130.976 103.39 129.824H105.226V128.024H99.34C99.484 127.664 99.646 127.304 99.79 126.926L97.972 126.71ZM101.626 129.824C101.338 130.688 100.87 131.408 100.24 132.02C99.394 131.66 98.53 131.318 97.666 131.012C97.918 130.634 98.17 130.238 98.422 129.824H101.626ZM113.938 123.578C112.75 128.114 110.284 131.588 106.558 134.036L107.71 135.656C111.31 133.316 113.704 130.004 114.928 125.738L114.982 125.9C116.908 130.724 119.266 133.982 122.056 135.638L123.226 134.144C120.526 132.416 118.33 129.464 116.62 125.288C115.432 122.282 114.1 120.248 112.624 119.204L111.058 120.212C112.174 121.004 113.128 122.12 113.938 123.578ZM132.226 131.696L133.468 130.454C132.82 129.446 132.19 128.528 131.578 127.7C131.992 126.224 132.334 124.604 132.604 122.804L130.876 122.498C130.714 123.686 130.498 124.838 130.246 125.918C129.634 125.126 129.058 124.442 128.518 123.866L127.456 124.892V121.598H138.544V131.174C137.896 130.094 137.266 129.086 136.654 128.168C137.158 126.584 137.572 124.802 137.878 122.858L136.114 122.552C135.916 123.866 135.664 125.108 135.358 126.278C134.746 125.414 134.17 124.694 133.648 124.082L132.496 125.198C133.27 126.206 134.026 127.232 134.746 128.294C134.134 129.986 133.378 131.462 132.478 132.758L133.666 134.234C134.53 133.082 135.286 131.732 135.934 130.148C136.438 130.94 136.906 131.75 137.374 132.578L138.544 131.408V133.442C138.544 133.838 138.328 134.036 137.914 134.036L136.258 133.946L136.726 135.764H138.526C139.768 135.764 140.398 135.134 140.398 133.874V119.798H125.602V135.89H127.456V125.09C128.212 126.008 128.968 126.962 129.688 127.934C129.148 129.59 128.464 131.066 127.636 132.326L128.824 133.802C129.634 132.65 130.336 131.282 130.93 129.698C131.362 130.346 131.794 131.012 132.226 131.696ZM147.886 119.294L146.158 120.122C146.788 120.896 147.382 121.778 147.958 122.75H144.214V124.586H150.046V125.018C150.01 125.846 149.92 126.638 149.776 127.358H143.188V129.194H149.236C149.02 129.734 148.75 130.238 148.444 130.706C147.472 132.056 145.618 133.19 142.846 134.09L143.872 135.728C146.644 134.864 148.642 133.622 149.866 132.002C150.298 131.39 150.676 130.688 151 129.932C152.062 132.398 154.438 134.396 158.146 135.908L159.262 134.126C155.698 132.902 153.466 131.264 152.602 129.194H158.812V127.358H151.702C151.828 126.638 151.918 125.846 151.954 125.018V124.586H157.768V122.75H154.438C154.996 121.832 155.464 120.806 155.86 119.672L154.024 119.168C153.538 120.536 152.98 121.742 152.332 122.75H148.786L149.83 122.228C149.2 121.166 148.552 120.194 147.886 119.294Z" fill="#566270" fill-opacity="0.6"/>
<path d="M100.942 228.37V230.206H113.812V228.37H110.374C111.382 225.832 112.228 222.97 112.912 219.766L111.04 219.244C110.266 222.844 109.366 225.886 108.34 228.37H100.942ZM103.282 220.126L101.662 220.666C102.382 222.736 102.958 224.896 103.426 227.146L105.208 226.678C104.632 224.212 104.002 222.034 103.282 220.126ZM106.72 218.812L105.1 219.352C105.712 221.494 106.198 223.726 106.594 226.03L108.376 225.58C107.89 223.042 107.332 220.792 106.72 218.812ZM106.846 214.096L104.74 214.456C105.028 214.87 105.298 215.32 105.55 215.806H99.052V221.296C99.016 224.788 98.548 227.524 97.648 229.486L99.25 230.908C100.33 228.496 100.906 225.292 100.96 221.296V217.624H114.082V215.806H107.638C107.386 215.176 107.116 214.6 106.846 214.096ZM119.158 220.864H123.118V223.456H119.158V220.864ZM119.068 225.184H123.118V230.26H125.026V225.184H129.31V227.686C129.31 228.37 129.022 228.73 128.482 228.73C127.87 228.73 127.222 228.694 126.502 228.622L127.006 230.458H129.076C130.498 230.458 131.218 229.756 131.218 228.37V214.78H117.268V223.69C117.232 226.03 116.692 227.956 115.63 229.468L117.07 230.764C118.168 229.288 118.834 227.416 119.068 225.184ZM129.31 223.456H125.026V220.864H129.31V223.456ZM129.31 219.136H125.026V216.616H129.31V219.136ZM123.118 216.616V219.136H119.158V216.616H123.118ZM138.76 220.954V222.574H148.678V220.954H138.76ZM137.5 223.87V225.562H141.082C139.966 227.254 139.048 228.316 138.364 228.73C138.274 228.784 138.148 228.838 137.986 228.892L138.4 230.458C141.712 230.242 144.772 229.936 147.58 229.558C147.886 229.99 148.174 230.422 148.444 230.854L149.938 229.792C149.182 228.676 148.084 227.362 146.662 225.85L145.294 226.696C145.69 227.164 146.086 227.632 146.464 228.1C144.52 228.388 142.558 228.622 140.614 228.784C141.334 228.046 142.162 226.966 143.08 225.562H149.848V223.87H137.5ZM147.256 216.49V218.038H137.32V216.49H147.256ZM137.32 219.73H149.11V214.78H135.466V220.972C135.448 224.464 134.872 227.326 133.738 229.54L135.124 230.782C136.564 228.046 137.302 224.77 137.32 220.972V219.73Z" fill="#566270" fill-opacity="0.6"/>
<path d="M111.26 309.148V322H115.958C118.046 322 119.612 321.424 120.692 320.272C121.718 319.174 122.24 317.608 122.24 315.574C122.24 313.522 121.718 311.956 120.692 310.876C119.612 309.724 118.046 309.148 115.958 309.148H111.26ZM113.366 310.948H115.562C117.164 310.948 118.334 311.308 119.072 312.046C119.792 312.766 120.152 313.954 120.152 315.574C120.152 317.158 119.792 318.328 119.072 319.084C118.334 319.822 117.164 320.2 115.562 320.2H113.366V310.948ZM124.215 309.148V322H130.119C131.487 322 132.567 321.748 133.323 321.244C134.205 320.632 134.655 319.678 134.655 318.382C134.655 317.518 134.439 316.816 134.025 316.312C133.593 315.79 132.963 315.448 132.117 315.286C132.765 315.034 133.251 314.692 133.593 314.224C133.935 313.72 134.115 313.108 134.115 312.388C134.115 311.416 133.773 310.642 133.107 310.066C132.387 309.454 131.379 309.148 130.101 309.148H124.215ZM126.321 310.876H129.579C130.443 310.876 131.055 311.02 131.451 311.308C131.811 311.578 132.009 312.028 132.009 312.64C132.009 313.306 131.811 313.792 131.451 314.098C131.073 314.386 130.443 314.548 129.543 314.548H126.321V310.876ZM126.321 316.276H129.867C130.803 316.276 131.487 316.438 131.919 316.762C132.333 317.086 132.549 317.608 132.549 318.346C132.549 319.066 132.261 319.57 131.685 319.894C131.235 320.146 130.605 320.272 129.813 320.272H126.321V316.276Z" fill="#566270" fill-opacity="0.6"/>
<path d="M122.293 199.707C122.683 200.098 123.317 200.098 123.707 199.707L130.071 193.343C130.462 192.953 130.462 192.319 130.071 191.929C129.681 191.538 129.047 191.538 128.657 191.929L123 197.586L117.343 191.929C116.953 191.538 116.319 191.538 115.929 191.929C115.538 192.319 115.538 192.953 115.929 193.343L122.293 199.707ZM122 152V199H124V152H122Z" fill="#566270" fill-opacity="0.6"/>
<path d="M122.293 296.707C122.683 297.098 123.317 297.098 123.707 296.707L130.071 290.343C130.462 289.953 130.462 289.319 130.071 288.929C129.681 288.538 129.047 288.538 128.657 288.929L123 294.586L117.343 288.929C116.953 288.538 116.319 288.538 115.929 288.929C115.538 289.319 115.538 289.953 115.929 290.343L122.293 296.707ZM122 238V296H124V238H122Z" fill="#566270" fill-opacity="0.6"/>
<g filter="url(#filter1_d)">
<rect x="417" y="70" width="247" height="344" rx="8" fill="#D4DFE6"/>
</g>
<path d="M513.972 378.534V380.352H516.348C515.754 382.368 514.836 384.15 513.576 385.698L514.386 387.75C515.196 386.49 515.88 385.122 516.438 383.646V391.8H518.31V382.944C518.688 383.574 519.12 384.348 519.624 385.248L520.722 383.592C519.912 382.656 519.102 381.792 518.31 381.018V380.352H520.326V378.534H518.31V375.222H516.438V378.534H513.972ZM519.21 390.648L520.758 392.016C521.604 390.684 522.18 389.28 522.486 387.84C522.81 386.4 522.972 384.672 522.972 382.638V377.544H525.528V389.658C525.528 390.846 526.212 391.458 527.598 391.458H528.408C529.038 391.458 529.506 391.332 529.794 391.098C530.082 390.81 530.262 390.342 530.334 389.658C530.406 388.974 530.46 387.93 530.46 386.562L528.732 386.022C528.732 387.93 528.696 389.028 528.624 389.28C528.588 389.406 528.552 389.514 528.48 389.586C528.408 389.658 528.3 389.694 528.156 389.694H527.616C527.49 389.694 527.436 389.604 527.436 389.442V375.78H521.1V382.638C521.1 384.672 520.974 386.202 520.74 387.228C520.452 388.416 519.93 389.568 519.21 390.648ZM538.38 384.942C538.164 387.426 536.958 389.19 534.726 390.216L535.752 391.854C537.588 390.918 538.866 389.586 539.622 387.876H544.932C544.842 388.866 544.788 389.46 544.752 389.64C544.68 389.82 544.536 389.946 544.32 390.018C544.068 390.09 543.51 390.144 542.628 390.144C542.232 390.144 541.854 390.126 541.458 390.09L541.962 391.782H542.142C543.888 391.782 545.004 391.692 545.49 391.548C545.958 391.404 546.282 391.116 546.444 390.684C546.588 390.252 546.732 388.758 546.84 386.184H540.126C540.198 385.788 540.252 385.374 540.288 384.942H548.046V383.178H542.556C542.412 382.674 542.268 382.206 542.124 381.792L540.126 382.116C540.288 382.44 540.432 382.8 540.576 383.178H535.788V384.942H538.38ZM545.346 378.174V379.884H535.284V378.174H545.346ZM535.284 381.612H547.2V376.428H541.332C541.17 375.924 541.008 375.456 540.846 375.024L538.812 375.348C538.974 375.672 539.136 376.032 539.28 376.428H533.394V382.926C533.376 386.076 532.764 388.65 531.54 390.63L532.944 391.89C534.492 389.388 535.266 386.4 535.284 382.926V381.612ZM556.254 377.148V390H562.158C563.526 390 564.606 389.748 565.362 389.244C566.244 388.632 566.694 387.678 566.694 386.382C566.694 385.518 566.478 384.816 566.064 384.312C565.632 383.79 565.002 383.448 564.156 383.286C564.804 383.034 565.29 382.692 565.632 382.224C565.974 381.72 566.154 381.108 566.154 380.388C566.154 379.416 565.812 378.642 565.146 378.066C564.426 377.454 563.418 377.148 562.14 377.148H556.254ZM558.36 378.876H561.618C562.482 378.876 563.094 379.02 563.49 379.308C563.85 379.578 564.048 380.028 564.048 380.64C564.048 381.306 563.85 381.792 563.49 382.098C563.112 382.386 562.482 382.548 561.582 382.548H558.36V378.876ZM558.36 384.276H561.906C562.842 384.276 563.526 384.438 563.958 384.762C564.372 385.086 564.588 385.608 564.588 386.346C564.588 387.066 564.3 387.57 563.724 387.894C563.274 388.146 562.644 388.272 561.852 388.272H558.36V384.276Z" fill="#566270" fill-opacity="0.6"/>
<rect x="430" y="184" width="221" height="74" rx="8" fill="#8EC0E4"/>
<rect x="430" y="91" width="221" height="74" rx="8" fill="#8EC0E4"/>
<path d="M514.576 122.336L513.244 122.984C513.568 123.506 513.892 124.082 514.18 124.73H511.714V126.512H521.92V124.73H519.382C519.742 124.1 520.066 123.416 520.354 122.66L519.454 122.336H521.596V120.644H517.69C517.51 120.068 517.348 119.528 517.168 119.06L515.224 119.384C515.44 119.78 515.62 120.194 515.8 120.644H512.146V122.336H514.576ZM515.962 124.73C515.602 123.866 515.224 123.074 514.81 122.336H518.482C518.176 123.164 517.816 123.974 517.402 124.73H515.962ZM507.952 135.71C509.176 135.71 509.806 135.098 509.806 133.874V128.906C510.22 128.708 510.634 128.51 511.066 128.294V126.386C510.652 126.602 510.238 126.818 509.806 127.034V124.28H511.102V122.462H509.806V119.276H507.898V122.462H505.9V124.28H507.898V127.826C507.124 128.114 506.332 128.33 505.522 128.51L506.008 130.4C506.638 130.184 507.268 129.968 507.898 129.734V133.388C507.898 133.784 507.7 134 507.304 134C506.872 134 506.422 133.964 505.954 133.892L506.368 135.71H507.952ZM514.972 126.71C514.828 127.124 514.648 127.556 514.432 128.024H511.48V129.824H513.532C513.172 130.436 512.794 131.084 512.362 131.75C513.514 132.2 514.576 132.65 515.584 133.082C514.522 133.568 513.1 133.964 511.336 134.288L512.056 135.98C514.558 135.476 516.412 134.828 517.618 134C519.022 134.648 520.174 135.278 521.11 135.854L522.136 134.36C521.11 133.784 520.048 133.262 518.95 132.776C519.634 131.948 520.12 130.976 520.39 129.824H522.226V128.024H516.34C516.484 127.664 516.646 127.304 516.79 126.926L514.972 126.71ZM518.626 129.824C518.338 130.688 517.87 131.408 517.24 132.02C516.394 131.66 515.53 131.318 514.666 131.012C514.918 130.634 515.17 130.238 515.422 129.824H518.626ZM530.938 123.578C529.75 128.114 527.284 131.588 523.558 134.036L524.71 135.656C528.31 133.316 530.704 130.004 531.928 125.738L531.982 125.9C533.908 130.724 536.266 133.982 539.056 135.638L540.226 134.144C537.526 132.416 535.33 129.464 533.62 125.288C532.432 122.282 531.1 120.248 529.624 119.204L528.058 120.212C529.174 121.004 530.128 122.12 530.938 123.578ZM549.226 131.696L550.468 130.454C549.82 129.446 549.19 128.528 548.578 127.7C548.992 126.224 549.334 124.604 549.604 122.804L547.876 122.498C547.714 123.686 547.498 124.838 547.246 125.918C546.634 125.126 546.058 124.442 545.518 123.866L544.456 124.892V121.598H555.544V131.174C554.896 130.094 554.266 129.086 553.654 128.168C554.158 126.584 554.572 124.802 554.878 122.858L553.114 122.552C552.916 123.866 552.664 125.108 552.358 126.278C551.746 125.414 551.17 124.694 550.648 124.082L549.496 125.198C550.27 126.206 551.026 127.232 551.746 128.294C551.134 129.986 550.378 131.462 549.478 132.758L550.666 134.234C551.53 133.082 552.286 131.732 552.934 130.148C553.438 130.94 553.906 131.75 554.374 132.578L555.544 131.408V133.442C555.544 133.838 555.328 134.036 554.914 134.036L553.258 133.946L553.726 135.764H555.526C556.768 135.764 557.398 135.134 557.398 133.874V119.798H542.602V135.89H544.456V125.09C545.212 126.008 545.968 126.962 546.688 127.934C546.148 129.59 545.464 131.066 544.636 132.326L545.824 133.802C546.634 132.65 547.336 131.282 547.93 129.698C548.362 130.346 548.794 131.012 549.226 131.696ZM564.886 119.294L563.158 120.122C563.788 120.896 564.382 121.778 564.958 122.75H561.214V124.586H567.046V125.018C567.01 125.846 566.92 126.638 566.776 127.358H560.188V129.194H566.236C566.02 129.734 565.75 130.238 565.444 130.706C564.472 132.056 562.618 133.19 559.846 134.09L560.872 135.728C563.644 134.864 565.642 133.622 566.866 132.002C567.298 131.39 567.676 130.688 568 129.932C569.062 132.398 571.438 134.396 575.146 135.908L576.262 134.126C572.698 132.902 570.466 131.264 569.602 129.194H575.812V127.358H568.702C568.828 126.638 568.918 125.846 568.954 125.018V124.586H574.768V122.75H571.438C571.996 121.832 572.464 120.806 572.86 119.672L571.024 119.168C570.538 120.536 569.98 121.742 569.332 122.75H565.786L566.83 122.228C566.2 121.166 565.552 120.194 564.886 119.294Z" fill="#566270" fill-opacity="0.6"/>
<path d="M517.942 228.37V230.206H530.812V228.37H527.374C528.382 225.832 529.228 222.97 529.912 219.766L528.04 219.244C527.266 222.844 526.366 225.886 525.34 228.37H517.942ZM520.282 220.126L518.662 220.666C519.382 222.736 519.958 224.896 520.426 227.146L522.208 226.678C521.632 224.212 521.002 222.034 520.282 220.126ZM523.72 218.812L522.1 219.352C522.712 221.494 523.198 223.726 523.594 226.03L525.376 225.58C524.89 223.042 524.332 220.792 523.72 218.812ZM523.846 214.096L521.74 214.456C522.028 214.87 522.298 215.32 522.55 215.806H516.052V221.296C516.016 224.788 515.548 227.524 514.648 229.486L516.25 230.908C517.33 228.496 517.906 225.292 517.96 221.296V217.624H531.082V215.806H524.638C524.386 215.176 524.116 214.6 523.846 214.096ZM536.158 220.864H540.118V223.456H536.158V220.864ZM536.068 225.184H540.118V230.26H542.026V225.184H546.31V227.686C546.31 228.37 546.022 228.73 545.482 228.73C544.87 228.73 544.222 228.694 543.502 228.622L544.006 230.458H546.076C547.498 230.458 548.218 229.756 548.218 228.37V214.78H534.268V223.69C534.232 226.03 533.692 227.956 532.63 229.468L534.07 230.764C535.168 229.288 535.834 227.416 536.068 225.184ZM546.31 223.456H542.026V220.864H546.31V223.456ZM546.31 219.136H542.026V216.616H546.31V219.136ZM540.118 216.616V219.136H536.158V216.616H540.118ZM555.76 220.954V222.574H565.678V220.954H555.76ZM554.5 223.87V225.562H558.082C556.966 227.254 556.048 228.316 555.364 228.73C555.274 228.784 555.148 228.838 554.986 228.892L555.4 230.458C558.712 230.242 561.772 229.936 564.58 229.558C564.886 229.99 565.174 230.422 565.444 230.854L566.938 229.792C566.182 228.676 565.084 227.362 563.662 225.85L562.294 226.696C562.69 227.164 563.086 227.632 563.464 228.1C561.52 228.388 559.558 228.622 557.614 228.784C558.334 228.046 559.162 226.966 560.08 225.562H566.848V223.87H554.5ZM564.256 216.49V218.038H554.32V216.49H564.256ZM554.32 219.73H566.11V214.78H552.466V220.972C552.448 224.464 551.872 227.326 550.738 229.54L552.124 230.782C553.564 228.046 554.302 224.77 554.32 220.972V219.73Z" fill="#566270" fill-opacity="0.6"/>
<path d="M539.293 199.707C539.683 200.098 540.317 200.098 540.707 199.707L547.071 193.343C547.462 192.953 547.462 192.319 547.071 191.929C546.681 191.538 546.047 191.538 545.657 191.929L540 197.586L534.343 191.929C533.953 191.538 533.319 191.538 532.929 191.929C532.538 192.319 532.538 192.953 532.929 193.343L539.293 199.707ZM539 152V199H541V152H539Z" fill="#566270" fill-opacity="0.6"/>
<line x1="539" y1="314.984" x2="540.049" y2="249.985" stroke="#566270" stroke-opacity="0.6" stroke-width="2"/>
<path d="M213.297 312.36C212.904 312.748 212.9 313.381 213.288 313.774L219.614 320.175C220.003 320.568 220.636 320.572 221.029 320.184C221.421 319.796 221.425 319.162 221.037 318.77L215.414 313.079L221.104 307.456C221.497 307.068 221.501 306.435 221.112 306.042C220.724 305.649 220.091 305.645 219.698 306.034L213.297 312.36ZM540.006 314L214.005 312.071L213.994 314.071L539.994 316L540.006 314Z" fill="#566270" fill-opacity="0.6"/>
<rect x="69" width="527" height="51" rx="8" fill="#D4DFE6"/>
<path d="M299.946 19.168C297.858 21.364 295.248 23.182 292.116 24.658L293.034 26.332C293.934 25.9 294.78 25.432 295.59 24.928V26.566H299.658V29.086H294.636V30.904H299.658V33.568H293.034V35.404H308.208V33.568H301.566V30.904H306.57V29.086H301.566V26.566H305.634V24.946C306.426 25.432 307.254 25.882 308.118 26.296L309.054 24.622C306.12 23.29 303.528 21.472 301.278 19.168H299.946ZM295.878 24.748C297.714 23.596 299.298 22.3 300.612 20.878C301.98 22.336 303.546 23.632 305.328 24.748H295.878ZM312.168 26.782V31.498H317.658V32.2H311.826V33.406H317.658V34.162H310.494V35.566H326.73V34.162H319.53V33.406H325.434V32.2H319.53V31.498H325.092V26.782H312.168ZM323.31 30.418H319.53V29.644H323.31V30.418ZM317.658 30.418H313.95V29.644H317.658V30.418ZM313.95 28.636V27.88H317.658V28.636H313.95ZM319.53 27.88H323.31V28.636H319.53V27.88ZM312.564 19.474V24.1H324.714V19.474H312.564ZM322.914 23.056H314.364V22.318H322.914V23.056ZM314.364 21.274V20.536H322.914V21.274H314.364ZM310.494 24.784V26.116H326.73V24.784H310.494ZM331.77 25.864H335.73V28.456H331.77V25.864ZM331.68 30.184H335.73V35.26H337.638V30.184H341.922V32.686C341.922 33.37 341.634 33.73 341.094 33.73C340.482 33.73 339.834 33.694 339.114 33.622L339.618 35.458H341.688C343.11 35.458 343.83 34.756 343.83 33.37V19.78H329.88V28.69C329.844 31.03 329.304 32.956 328.242 34.468L329.682 35.764C330.78 34.288 331.446 32.416 331.68 30.184ZM341.922 28.456H337.638V25.864H341.922V28.456ZM341.922 24.136H337.638V21.616H341.922V24.136ZM335.73 21.616V24.136H331.77V21.616H335.73ZM359.598 23.074V25.936H349.986V23.074H359.598ZM349.968 27.772H361.506V21.238H355.8C355.512 20.428 355.242 19.708 354.954 19.06L352.938 19.384C353.28 19.96 353.586 20.572 353.874 21.238H348.132V27.214C348.114 30.274 347.43 32.776 346.098 34.702L347.502 35.98C349.05 33.676 349.86 30.94 349.968 27.772Z" fill="#566270" fill-opacity="0.6"/>
<path d="M122.293 100.707C122.683 101.098 123.317 101.098 123.707 100.707L130.071 94.3431C130.462 93.9526 130.462 93.3195 130.071 92.9289C129.681 92.5384 129.047 92.5384 128.657 92.9289L123 98.5858L117.343 92.9289C116.953 92.5384 116.319 92.5384 115.929 92.9289C115.538 93.3195 115.538 93.9526 115.929 94.3431L122.293 100.707ZM122 34V100H124V34H122Z" fill="#566270" fill-opacity="0.6"/>
<path d="M213.29 223.566C212.901 223.173 212.904 222.54 213.296 222.151L219.69 215.818C220.083 215.429 220.716 215.432 221.105 215.825C221.493 216.217 221.49 216.85 221.098 217.239L215.414 222.869L221.044 228.552C221.433 228.945 221.43 229.578 221.037 229.967C220.645 230.355 220.012 230.352 219.623 229.96L213.29 223.566ZM452.995 225L213.995 223.862L214.005 221.862L453.004 223L452.995 225Z" fill="#566270" fill-opacity="0.6"/>
<path d="M453.71 223.566C454.099 223.173 454.095 222.54 453.703 222.151L447.309 215.818C446.917 215.429 446.283 215.432 445.895 215.825C445.506 216.217 445.509 216.85 445.901 217.239L451.585 222.869L445.955 228.552C445.567 228.945 445.57 229.578 445.962 229.967C446.354 230.355 446.988 230.352 447.376 229.96L453.71 223.566ZM214.005 225L453.004 223.862L452.995 221.862L213.995 223L214.005 225Z" fill="#566270" fill-opacity="0.6"/>
<path d="M539.293 100.707C539.683 101.098 540.317 101.098 540.707 100.707L547.071 94.3431C547.462 93.9526 547.462 93.3195 547.071 92.9289C546.681 92.5384 546.047 92.5384 545.657 92.9289L540 98.5858L534.343 92.9289C533.953 92.5384 533.319 92.5384 532.929 92.9289C532.538 93.3195 532.538 93.9526 532.929 94.3431L539.293 100.707ZM539 34V100H541V34H539Z" fill="#566270" fill-opacity="0.6"/>
<path d="M293.66 210.916V211.756H301.916V219.7C301.916 220.108 301.712 220.324 301.328 220.324C300.728 220.324 300.092 220.3 299.432 220.276L299.624 221.116H301.628C302.396 221.116 302.78 220.708 302.78 219.916V211.756H304.364V210.916H293.66ZM299.72 213.592H295.052V219.052H295.892V217.996H299.72V213.592ZM295.892 217.204V214.372H298.892V217.204H295.892ZM307.148 217.084H309.92V218.2H307.148V217.084ZM309.92 216.364H307.148V215.2H309.92V216.364ZM307.148 218.932H309.92V219.904C309.92 220.204 309.764 220.36 309.464 220.36L308.564 220.324L308.78 221.14H309.74C310.412 221.14 310.748 220.78 310.748 220.084V214.444H306.32V221.224H307.148V218.932ZM314.96 215.44C315.38 215.44 315.692 215.344 315.884 215.164C316.1 214.948 316.256 214.348 316.34 213.364L315.536 213.112C315.488 213.856 315.416 214.3 315.296 214.468C315.2 214.588 315.032 214.66 314.792 214.66H313.22C312.896 214.66 312.74 214.468 312.74 214.084V212.584C314.06 212.392 315.224 212.164 316.232 211.912L315.956 211.156C315.128 211.372 314.06 211.588 312.74 211.792V210.232H311.888V214.264C311.888 215.044 312.248 215.44 312.98 215.44H314.96ZM312.74 218.152C313.988 218.044 315.152 217.84 316.232 217.528L315.956 216.76C315.008 217.048 313.94 217.252 312.74 217.372V215.896H311.888V220.06C311.888 220.696 312.236 221.02 312.956 221.02H314.996C315.428 221.02 315.74 220.924 315.932 220.744C316.16 220.528 316.316 219.94 316.388 218.968L315.608 218.728C315.56 219.46 315.476 219.904 315.344 220.072C315.248 220.18 315.068 220.24 314.828 220.24H313.196C312.884 220.24 312.74 220.108 312.74 219.868V218.152ZM309.884 211.048L309.212 211.468C309.5 211.876 309.776 212.284 310.028 212.668C308.9 212.812 307.832 212.908 306.824 212.968C307.496 212.356 308.096 211.516 308.648 210.448L307.832 210.196C307.352 211.156 306.728 212.02 305.984 212.788C305.876 212.884 305.744 212.968 305.588 213.016L305.828 213.736C307.604 213.64 309.14 213.496 310.424 213.292C310.58 213.556 310.724 213.82 310.856 214.084L311.564 213.58C311.168 212.86 310.604 212.02 309.884 211.048ZM321.2 214.516H325.964V215.824H321.2V214.516ZM325.964 216.58V217.852H321.2V216.58H325.964ZM325.964 218.608V219.976C325.964 220.264 325.808 220.408 325.496 220.408C325.1 220.408 324.668 220.384 324.212 220.36L324.428 221.152H325.772C326.444 221.128 326.78 220.828 326.78 220.24V213.76H321.212C321.5 213.316 321.752 212.848 321.992 212.368H328.316V211.528H322.352C322.52 211.108 322.664 210.676 322.808 210.232L321.932 210.124C321.788 210.592 321.608 211.06 321.404 211.528H317.828V212.368H321.008C320.18 213.916 319.016 215.284 317.504 216.484L318.068 217.216C318.932 216.52 319.712 215.74 320.384 214.9V221.176H321.2V218.608H325.964ZM335.06 218.8C336.668 219.424 338.228 220.24 339.764 221.272L340.232 220.528C338.816 219.616 337.244 218.836 335.54 218.164C335.648 217.996 335.756 217.816 335.864 217.624H340.076V216.808H336.224C336.488 216.064 336.632 215.212 336.668 214.264V212.848H335.828V214.264C335.792 215.212 335.624 216.064 335.312 216.808H329.936V217.624H334.892C334.772 217.816 334.652 217.996 334.508 218.164C333.62 219.124 332.06 219.904 329.828 220.48L330.308 221.212C332.504 220.636 334.088 219.832 335.06 218.8ZM331.532 214.492L331.1 215.14C331.916 215.464 332.72 215.92 333.488 216.496L333.932 215.812C333.212 215.308 332.408 214.864 331.532 214.492ZM332.612 212.776L332.168 213.424C333.008 213.76 333.836 214.228 334.64 214.828L335.084 214.144C334.34 213.604 333.512 213.148 332.612 212.776ZM339.872 211.372H335.528C335.372 210.904 335.216 210.484 335.06 210.124L334.172 210.268C334.352 210.604 334.52 210.964 334.664 211.372H330.104V213.676H330.944V212.176H339.032V213.676H339.872V211.372ZM345.44 211.096H341.984V220.228H342.824V219.136H344.6V219.94H345.44V211.096ZM342.824 218.332V215.44H344.6V218.332H342.824ZM342.824 214.636V211.888H344.6V214.636H342.824ZM347.168 214.672L346.46 215.116C347.18 216.22 347.744 217.228 348.164 218.128L348.884 217.624C348.488 216.784 347.912 215.8 347.168 214.672ZM349.904 221.08C350.648 221.08 351.02 220.696 351.02 219.94V213.232H352.496V212.404H351.02V210.292H350.144V212.404H345.992V213.232H350.144V219.724C350.144 220.096 349.964 220.288 349.616 220.288C348.98 220.288 348.32 220.264 347.624 220.24L347.804 221.08H349.904ZM357.368 212.044V212.872H359.636C359.624 213.268 359.6 213.844 359.576 214.612C359.528 215.752 359.36 216.772 359.06 217.672C358.736 218.584 358.1 219.58 357.152 220.648L357.788 221.248C358.592 220.408 359.216 219.472 359.672 218.452C360.008 217.648 360.236 216.76 360.356 215.776H362.876C362.852 217.72 362.816 218.98 362.744 219.568C362.636 220.048 362.348 220.288 361.88 220.312C361.472 220.312 360.98 220.288 360.38 220.264L360.644 221.044C361.148 221.068 361.592 221.092 361.976 221.092C362.768 221.068 363.26 220.732 363.464 220.06C363.608 219.304 363.704 217.6 363.728 214.96H360.428C360.476 214.072 360.5 213.376 360.512 212.872H364.544V212.044H361.052L361.448 211.888C361.232 211.336 360.92 210.736 360.536 210.076L359.696 210.316C360.056 210.868 360.356 211.444 360.62 212.044H357.368ZM354.86 210.352L354.26 210.928C355.148 211.6 355.856 212.236 356.36 212.848L356.96 212.236C356.396 211.612 355.7 210.988 354.86 210.352ZM353.54 213.892V214.72H355.208V219.448C355.208 219.652 355.112 219.832 354.944 220L355.268 220.768C356.084 220.216 356.852 219.58 357.572 218.872L357.344 217.96C356.888 218.416 356.456 218.824 356.048 219.172V213.892H353.54ZM374.492 221.128C375.404 221.128 375.872 220.672 375.872 219.784V210.892H370.34V211.732H374.996V219.556C374.996 220.084 374.768 220.348 374.312 220.348L372.992 220.324L373.208 221.128H374.492ZM366.128 212.188V221.212H367.004V212.188H366.128ZM368.816 213.916V218.428H373.136V213.916H368.816ZM372.26 217.6H369.692V214.744H372.26V217.6ZM367.916 210.1L367.112 210.448C367.664 211.096 368.18 211.828 368.636 212.668L369.404 212.272C368.972 211.48 368.468 210.76 367.916 210.1Z" fill="#566270" fill-opacity="0.6"/>
<path d="M315.06 309.8C316.668 310.424 318.228 311.24 319.764 312.272L320.232 311.528C318.816 310.616 317.244 309.836 315.54 309.164C315.648 308.996 315.756 308.816 315.864 308.624H320.076V307.808H316.224C316.488 307.064 316.632 306.212 316.668 305.264V303.848H315.828V305.264C315.792 306.212 315.624 307.064 315.312 307.808H309.936V308.624H314.892C314.772 308.816 314.652 308.996 314.508 309.164C313.62 310.124 312.06 310.904 309.828 311.48L310.308 312.212C312.504 311.636 314.088 310.832 315.06 309.8ZM311.532 305.492L311.1 306.14C311.916 306.464 312.72 306.92 313.488 307.496L313.932 306.812C313.212 306.308 312.408 305.864 311.532 305.492ZM312.612 303.776L312.168 304.424C313.008 304.76 313.836 305.228 314.64 305.828L315.084 305.144C314.34 304.604 313.512 304.148 312.612 303.776ZM319.872 302.372H315.528C315.372 301.904 315.216 301.484 315.06 301.124L314.172 301.268C314.352 301.604 314.52 301.964 314.664 302.372H310.104V304.676H310.944V303.176H319.032V304.676H319.872V302.372ZM325.44 302.096H321.984V311.228H322.824V310.136H324.6V310.94H325.44V302.096ZM322.824 309.332V306.44H324.6V309.332H322.824ZM322.824 305.636V302.888H324.6V305.636H322.824ZM327.168 305.672L326.46 306.116C327.18 307.22 327.744 308.228 328.164 309.128L328.884 308.624C328.488 307.784 327.912 306.8 327.168 305.672ZM329.904 312.08C330.648 312.08 331.02 311.696 331.02 310.94V304.232H332.496V303.404H331.02V301.292H330.144V303.404H325.992V304.232H330.144V310.724C330.144 311.096 329.964 311.288 329.616 311.288C328.98 311.288 328.32 311.264 327.624 311.24L327.804 312.08H329.904ZM337.368 303.044V303.872H339.636C339.624 304.268 339.6 304.844 339.576 305.612C339.528 306.752 339.36 307.772 339.06 308.672C338.736 309.584 338.1 310.58 337.152 311.648L337.788 312.248C338.592 311.408 339.216 310.472 339.672 309.452C340.008 308.648 340.236 307.76 340.356 306.776H342.876C342.852 308.72 342.816 309.98 342.744 310.568C342.636 311.048 342.348 311.288 341.88 311.312C341.472 311.312 340.98 311.288 340.38 311.264L340.644 312.044C341.148 312.068 341.592 312.092 341.976 312.092C342.768 312.068 343.26 311.732 343.464 311.06C343.608 310.304 343.704 308.6 343.728 305.96H340.428C340.476 305.072 340.5 304.376 340.512 303.872H344.544V303.044H341.052L341.448 302.888C341.232 302.336 340.92 301.736 340.536 301.076L339.696 301.316C340.056 301.868 340.356 302.444 340.62 303.044H337.368ZM334.86 301.352L334.26 301.928C335.148 302.6 335.856 303.236 336.36 303.848L336.96 303.236C336.396 302.612 335.7 301.988 334.86 301.352ZM333.54 304.892V305.72H335.208V310.448C335.208 310.652 335.112 310.832 334.944 311L335.268 311.768C336.084 311.216 336.852 310.58 337.572 309.872L337.344 308.96C336.888 309.416 336.456 309.824 336.048 310.172V304.892H333.54ZM354.492 312.128C355.404 312.128 355.872 311.672 355.872 310.784V301.892H350.34V302.732H354.996V310.556C354.996 311.084 354.768 311.348 354.312 311.348L352.992 311.324L353.208 312.128H354.492ZM346.128 303.188V312.212H347.004V303.188H346.128ZM348.816 304.916V309.428H353.136V304.916H348.816ZM352.26 308.6H349.692V305.744H352.26V308.6ZM347.916 301.1L347.112 301.448C347.664 302.096 348.18 302.828 348.636 303.668L349.404 303.272C348.972 302.48 348.468 301.76 347.916 301.1Z" fill="#566270" fill-opacity="0.6"/>
<defs>
<filter id="filter0_d" x="0" y="70" width="255" height="352" filterUnits="userSpaceOnUse" color-interpolation-filters="sRGB">
<feFlood flood-opacity="0" result="BackgroundImageFix"/>
<feColorMatrix in="SourceAlpha" type="matrix" values="0 0 0 0 0 0 0 0 0 0 0 0 0 0 0 0 0 0 127 0"/>
<feOffset dx="4" dy="4"/>
<feGaussianBlur stdDeviation="2"/>
<feColorMatrix type="matrix" values="0 0 0 0 0 0 0 0 0 0 0 0 0 0 0 0 0 0 0.25 0"/>
<feBlend mode="normal" in2="BackgroundImageFix" result="effect1_dropShadow"/>
<feBlend mode="normal" in="SourceGraphic" in2="effect1_dropShadow" result="shape"/>
</filter>
<filter id="filter1_d" x="417" y="70" width="255" height="352" filterUnits="userSpaceOnUse" color-interpolation-filters="sRGB">
<feFlood flood-opacity="0" result="BackgroundImageFix"/>
<feColorMatrix in="SourceAlpha" type="matrix" values="0 0 0 0 0 0 0 0 0 0 0 0 0 0 0 0 0 0 127 0"/>
<feOffset dx="4" dy="4"/>
<feGaussianBlur stdDeviation="2"/>
<feColorMatrix type="matrix" values="0 0 0 0 0 0 0 0 0 0 0 0 0 0 0 0 0 0 0.25 0"/>
<feBlend mode="normal" in2="BackgroundImageFix" result="effect1_dropShadow"/>
<feBlend mode="normal" in="SourceGraphic" in2="effect1_dropShadow" result="shape"/>
</filter>
</defs>
</svg>
