<svg width="496" height="103" viewBox="0 0 496 103" fill="none" xmlns="http://www.w3.org/2000/svg">
<g filter="url(#filter0_d)">
<rect width="138" height="95" rx="3" fill="#8EC0E4"/>
</g>
<path d="M43.972 44.534V46.352H46.348C45.754 48.368 44.836 50.15 43.576 51.698L44.386 53.75C45.196 52.49 45.88 51.122 46.438 49.646V57.8H48.31V48.944C48.688 49.574 49.12 50.348 49.624 51.248L50.722 49.592C49.912 48.656 49.102 47.792 48.31 47.018V46.352H50.326V44.534H48.31V41.222H46.438V44.534H43.972ZM49.21 56.648L50.758 58.016C51.604 56.684 52.18 55.28 52.486 53.84C52.81 52.4 52.972 50.672 52.972 48.638V43.544H55.528V55.658C55.528 56.846 56.212 57.458 57.598 57.458H58.408C59.038 57.458 59.506 57.332 59.794 57.098C60.082 56.81 60.262 56.342 60.334 55.658C60.406 54.974 60.46 53.93 60.46 52.562L58.732 52.022C58.732 53.93 58.696 55.028 58.624 55.28C58.588 55.406 58.552 55.514 58.48 55.586C58.408 55.658 58.3 55.694 58.156 55.694H57.616C57.49 55.694 57.436 55.604 57.436 55.442V41.78H51.1V48.638C51.1 50.672 50.974 52.202 50.74 53.228C50.452 54.416 49.93 55.568 49.21 56.648ZM68.38 50.942C68.164 53.426 66.958 55.19 64.726 56.216L65.752 57.854C67.588 56.918 68.866 55.586 69.622 53.876H74.932C74.842 54.866 74.788 55.46 74.752 55.64C74.68 55.82 74.536 55.946 74.32 56.018C74.068 56.09 73.51 56.144 72.628 56.144C72.232 56.144 71.854 56.126 71.458 56.09L71.962 57.782H72.142C73.888 57.782 75.004 57.692 75.49 57.548C75.958 57.404 76.282 57.116 76.444 56.684C76.588 56.252 76.732 54.758 76.84 52.184H70.126C70.198 51.788 70.252 51.374 70.288 50.942H78.046V49.178H72.556C72.412 48.674 72.268 48.206 72.124 47.792L70.126 48.116C70.288 48.44 70.432 48.8 70.576 49.178H65.788V50.942H68.38ZM75.346 44.174V45.884H65.284V44.174H75.346ZM65.284 47.612H77.2V42.428H71.332C71.17 41.924 71.008 41.456 70.846 41.024L68.812 41.348C68.974 41.672 69.136 42.032 69.28 42.428H63.394V48.926C63.376 52.076 62.764 54.65 61.54 56.63L62.944 57.89C64.492 55.388 65.266 52.4 65.284 48.926V47.612ZM89.9081 43.148L84.9941 56H87.2441L88.4141 52.778H93.7961L94.9661 56H97.2161L92.3021 43.148H89.9081ZM89.0441 51.05L91.0781 45.416H91.1501L93.1661 51.05H89.0441Z" fill="#566270" fill-opacity="0.6"/>
<g filter="url(#filter1_d)">
<rect x="354" width="138" height="95" rx="3" fill="#8EC0E4"/>
</g>
<path d="M405.118 48.546C404.758 48.096 403.21 46.224 402.562 45.558V44.46H404.902V42.444H402.562V38.754H400.51V42.444H397.864V44.46H400.24C399.664 46.62 398.602 49.05 397.414 50.472C397.756 51.012 398.224 51.876 398.422 52.488C399.214 51.48 399.916 49.986 400.51 48.366V55.548H402.562V48.06C403.066 48.852 403.588 49.698 403.876 50.274L405.118 48.546ZM412.48 53.406C412.39 53.406 412.318 53.37 412.282 53.298C412.246 53.226 412.228 52.974 412.228 52.506V39.78H405.784V45.576C405.784 48.276 405.568 51.786 403.192 54.162C403.66 54.432 404.506 55.134 404.848 55.53C407.44 52.938 407.854 48.618 407.854 45.594V41.814H410.104V52.56C410.104 54.108 410.248 54.54 410.59 54.882C410.896 55.206 411.4 55.368 411.85 55.368H412.84C413.236 55.368 413.668 55.278 413.956 55.044C414.244 54.828 414.424 54.486 414.532 53.946C414.64 53.424 414.712 52.146 414.73 51.192C414.208 51.012 413.614 50.688 413.2 50.328C413.2 51.39 413.164 52.272 413.146 52.668C413.11 53.028 413.092 53.208 413.02 53.298C412.966 53.37 412.876 53.406 412.786 53.406H412.48ZM431.632 39.582H416.458V41.49H431.632V39.582ZM423.73 46.494V47.61H419.698C419.716 47.232 419.734 46.854 419.734 46.494H423.73ZM428.428 43.83V44.946H419.734V43.83H428.428ZM432.046 49.284V47.61H425.854V46.494H430.516V42.282H417.646V46.278C417.646 48.672 417.448 51.93 415.432 54.18C415.954 54.414 416.872 54.99 417.268 55.368C418.69 53.73 419.32 51.444 419.572 49.284H422.65C422.362 51.462 421.606 53.01 418.294 53.892C418.726 54.288 419.266 55.062 419.464 55.566C422.11 54.756 423.424 53.532 424.126 51.93H428.284C428.158 53.028 428.014 53.55 427.816 53.73C427.654 53.874 427.474 53.91 427.186 53.91C426.844 53.91 426.052 53.892 425.242 53.802C425.548 54.306 425.764 55.044 425.8 55.584C426.754 55.62 427.672 55.602 428.176 55.566C428.734 55.512 429.202 55.386 429.598 54.972C430.048 54.522 430.264 53.406 430.462 51.048C430.498 50.796 430.516 50.292 430.516 50.292H424.63C424.702 49.968 424.756 49.626 424.792 49.284H432.046ZM438.625 54V41.2031H443.107C444.66 41.2031 445.838 41.502 446.641 42.0996C447.443 42.6914 447.845 43.5615 447.845 44.71C447.845 45.3369 447.684 45.8906 447.361 46.3711C447.039 46.8457 446.591 47.1943 446.017 47.417C446.673 47.5811 447.188 47.9121 447.563 48.4102C447.944 48.9082 448.135 49.5176 448.135 50.2383C448.135 51.4688 447.742 52.4004 446.957 53.0332C446.172 53.666 445.053 53.9883 443.6 54H438.625ZM441.262 48.4277V51.8818H443.521C444.142 51.8818 444.625 51.7354 444.971 51.4424C445.322 51.1436 445.498 50.7334 445.498 50.2119C445.498 49.04 444.892 48.4453 443.679 48.4277H441.262ZM441.262 46.5645H443.213C444.543 46.541 445.208 46.0107 445.208 44.9736C445.208 44.3936 445.038 43.9775 444.698 43.7256C444.364 43.4678 443.834 43.3389 443.107 43.3389H441.262V46.5645Z" fill="#566270" fill-opacity="0.6"/>
<g filter="url(#filter2_d)">
<path d="M337.061 48.0607C337.646 47.4749 337.646 46.5251 337.061 45.9393L327.515 36.3934C326.929 35.8076 325.979 35.8076 325.393 36.3934C324.808 36.9792 324.808 37.9289 325.393 38.5147L333.879 47L325.393 55.4853C324.808 56.0711 324.808 57.0208 325.393 57.6066C325.979 58.1924 326.929 58.1924 327.515 57.6066L337.061 48.0607ZM156 48.5L336 48.5V45.5L156 45.5V48.5Z" fill="#566270" fill-opacity="0.6"/>
</g>
<g filter="url(#filter3_d)">
<path d="M154.939 48.0607C154.354 47.4749 154.354 46.5251 154.939 45.9393L164.485 36.3934C165.071 35.8076 166.021 35.8076 166.607 36.3934C167.192 36.9792 167.192 37.9289 166.607 38.5147L158.121 47L166.607 55.4853C167.192 56.0711 167.192 57.0208 166.607 57.6066C166.021 58.1924 165.071 58.1924 164.485 57.6066L154.939 48.0607ZM336 48.5L156 48.5V45.5L336 45.5V48.5Z" fill="#566270" fill-opacity="0.6"/>
</g>
<path d="M234.612 35.856V36.696H237.804C237.552 37.524 237.276 38.316 236.988 39.084H242.916C242.28 39.876 241.404 40.644 240.3 41.364C239.472 41.076 238.608 40.8 237.708 40.56L237.252 41.232C239.16 41.748 241.02 42.444 242.82 43.332L243.3 42.576C242.64 42.264 241.944 41.964 241.224 41.7C242.46 40.812 243.36 39.912 243.936 39.024V38.28H238.224C238.392 37.788 238.572 37.26 238.74 36.696H245.388V35.856H238.968C239.088 35.388 239.208 34.896 239.328 34.368H244.68V33.564H239.508C239.604 33.132 239.688 32.664 239.784 32.184L238.896 32.112C238.8 32.592 238.704 33.072 238.596 33.564H235.428V34.368H238.416C238.296 34.872 238.176 35.364 238.044 35.856H234.612ZM250.776 40.812C249.6 41.268 248.22 41.64 246.636 41.904L246.744 42.744C248.256 42.468 249.6 42.096 250.776 41.64V40.812ZM248.64 32.136C248.16 33.564 247.596 34.836 246.948 35.94C246.84 36.096 246.72 36.204 246.588 36.252L246.792 37.044C247.464 36.96 248.136 36.876 248.796 36.78C248.172 37.896 247.632 38.688 247.188 39.144C247.08 39.24 246.948 39.324 246.792 39.396L247.032 40.188C248.184 40.032 249.384 39.744 250.644 39.336V38.556C249.78 38.844 248.916 39.072 248.052 39.24C248.748 38.388 249.636 36.948 250.692 34.92L249.924 34.632C249.684 35.112 249.444 35.568 249.228 36C248.688 36.084 248.148 36.156 247.608 36.204C248.232 35.268 248.856 34.02 249.468 32.46L248.64 32.136ZM256.596 34.32L253.608 34.74V32.196H252.744V34.86L250.908 35.124L251.04 35.916L252.768 35.664C252.78 36.24 252.816 36.792 252.876 37.308L250.704 37.656L250.824 38.472L252.984 38.124C253.032 38.436 253.08 38.736 253.152 39.048C253.296 39.696 253.476 40.272 253.704 40.8C252.816 41.46 251.82 41.964 250.716 42.324L251.22 43.02C252.24 42.708 253.2 42.216 254.088 41.556C254.16 41.712 254.256 41.856 254.364 42C254.88 42.72 255.42 43.08 255.996 43.104C256.62 43.104 257.1 42.3 257.436 40.716L256.704 40.236C256.488 41.52 256.212 42.168 255.9 42.168C255.588 42.168 255.24 41.868 254.844 41.28C254.796 41.208 254.76 41.124 254.712 41.052C255.456 40.404 256.14 39.612 256.776 38.688L256.092 38.22C255.588 38.988 255.012 39.66 254.364 40.26C254.196 39.78 254.052 39.24 253.932 38.616C253.896 38.424 253.86 38.208 253.836 37.992L257.052 37.488L256.92 36.672L253.74 37.176C253.692 36.66 253.656 36.12 253.632 35.544L256.716 35.112L256.596 34.32ZM254.952 32.16L254.28 32.58C254.88 33.132 255.36 33.648 255.696 34.116L256.368 33.648C256.032 33.228 255.564 32.736 254.952 32.16Z" fill="#566270" fill-opacity="0.6"/>
<defs>
<filter id="filter0_d" x="0" y="0" width="146" height="103" filterUnits="userSpaceOnUse" color-interpolation-filters="sRGB">
<feFlood flood-opacity="0" result="BackgroundImageFix"/>
<feColorMatrix in="SourceAlpha" type="matrix" values="0 0 0 0 0 0 0 0 0 0 0 0 0 0 0 0 0 0 127 0"/>
<feOffset dx="4" dy="4"/>
<feGaussianBlur stdDeviation="2"/>
<feColorMatrix type="matrix" values="0 0 0 0 0 0 0 0 0 0 0 0 0 0 0 0 0 0 0.25 0"/>
<feBlend mode="normal" in2="BackgroundImageFix" result="effect1_dropShadow"/>
<feBlend mode="normal" in="SourceGraphic" in2="effect1_dropShadow" result="shape"/>
</filter>
<filter id="filter1_d" x="350" y="0" width="146" height="103" filterUnits="userSpaceOnUse" color-interpolation-filters="sRGB">
<feFlood flood-opacity="0" result="BackgroundImageFix"/>
<feColorMatrix in="SourceAlpha" type="matrix" values="0 0 0 0 0 0 0 0 0 0 0 0 0 0 0 0 0 0 127 0"/>
<feOffset dy="4"/>
<feGaussianBlur stdDeviation="2"/>
<feColorMatrix type="matrix" values="0 0 0 0 0 0 0 0 0 0 0 0 0 0 0 0 0 0 0.25 0"/>
<feBlend mode="normal" in2="BackgroundImageFix" result="effect1_dropShadow"/>
<feBlend mode="normal" in="SourceGraphic" in2="effect1_dropShadow" result="shape"/>
</filter>
<filter id="filter2_d" x="152" y="35.9541" width="189.5" height="30.0919" filterUnits="userSpaceOnUse" color-interpolation-filters="sRGB">
<feFlood flood-opacity="0" result="BackgroundImageFix"/>
<feColorMatrix in="SourceAlpha" type="matrix" values="0 0 0 0 0 0 0 0 0 0 0 0 0 0 0 0 0 0 127 0"/>
<feOffset dy="4"/>
<feGaussianBlur stdDeviation="2"/>
<feColorMatrix type="matrix" values="0 0 0 0 0 0 0 0 0 0 0 0 0 0 0 0 0 0 0.25 0"/>
<feBlend mode="normal" in2="BackgroundImageFix" result="effect1_dropShadow"/>
<feBlend mode="normal" in="SourceGraphic" in2="effect1_dropShadow" result="shape"/>
</filter>
<filter id="filter3_d" x="150.5" y="35.9541" width="189.5" height="30.0919" filterUnits="userSpaceOnUse" color-interpolation-filters="sRGB">
<feFlood flood-opacity="0" result="BackgroundImageFix"/>
<feColorMatrix in="SourceAlpha" type="matrix" values="0 0 0 0 0 0 0 0 0 0 0 0 0 0 0 0 0 0 127 0"/>
<feOffset dy="4"/>
<feGaussianBlur stdDeviation="2"/>
<feColorMatrix type="matrix" values="0 0 0 0 0 0 0 0 0 0 0 0 0 0 0 0 0 0 0.25 0"/>
<feBlend mode="normal" in2="BackgroundImageFix" result="effect1_dropShadow"/>
<feBlend mode="normal" in="SourceGraphic" in2="effect1_dropShadow" result="shape"/>
</filter>
</defs>
</svg>
