<svg width="672" height="443" viewBox="0 0 672 443" fill="none" xmlns="http://www.w3.org/2000/svg">
<g filter="url(#filter0_d)">
<rect y="84" width="247" height="344" rx="8" fill="#D4DFE6"/>
</g>
<path d="M96.972 392.534V394.352H99.348C98.754 396.368 97.836 398.15 96.576 399.698L97.386 401.75C98.196 400.49 98.88 399.122 99.438 397.646V405.8H101.31V396.944C101.688 397.574 102.12 398.348 102.624 399.248L103.722 397.592C102.912 396.656 102.102 395.792 101.31 395.018V394.352H103.326V392.534H101.31V389.222H99.438V392.534H96.972ZM102.21 404.648L103.758 406.016C104.604 404.684 105.18 403.28 105.486 401.84C105.81 400.4 105.972 398.672 105.972 396.638V391.544H108.528V403.658C108.528 404.846 109.212 405.458 110.598 405.458H111.408C112.038 405.458 112.506 405.332 112.794 405.098C113.082 404.81 113.262 404.342 113.334 403.658C113.406 402.974 113.46 401.93 113.46 400.562L111.732 400.022C111.732 401.93 111.696 403.028 111.624 403.28C111.588 403.406 111.552 403.514 111.48 403.586C111.408 403.658 111.3 403.694 111.156 403.694H110.616C110.49 403.694 110.436 403.604 110.436 403.442V389.78H104.1V396.638C104.1 398.672 103.974 400.202 103.74 401.228C103.452 402.416 102.93 403.568 102.21 404.648ZM121.38 398.942C121.164 401.426 119.958 403.19 117.726 404.216L118.752 405.854C120.588 404.918 121.866 403.586 122.622 401.876H127.932C127.842 402.866 127.788 403.46 127.752 403.64C127.68 403.82 127.536 403.946 127.32 404.018C127.068 404.09 126.51 404.144 125.628 404.144C125.232 404.144 124.854 404.126 124.458 404.09L124.962 405.782H125.142C126.888 405.782 128.004 405.692 128.49 405.548C128.958 405.404 129.282 405.116 129.444 404.684C129.588 404.252 129.732 402.758 129.84 400.184H123.126C123.198 399.788 123.252 399.374 123.288 398.942H131.046V397.178H125.556C125.412 396.674 125.268 396.206 125.124 395.792L123.126 396.116C123.288 396.44 123.432 396.8 123.576 397.178H118.788V398.942H121.38ZM128.346 392.174V393.884H118.284V392.174H128.346ZM118.284 395.612H130.2V390.428H124.332C124.17 389.924 124.008 389.456 123.846 389.024L121.812 389.348C121.974 389.672 122.136 390.032 122.28 390.428H116.394V396.926C116.376 400.076 115.764 402.65 114.54 404.63L115.944 405.89C117.492 403.388 118.266 400.4 118.284 396.926V395.612ZM142.908 391.148L137.994 404H140.244L141.414 400.778H146.796L147.966 404H150.216L145.302 391.148H142.908ZM142.044 399.05L144.078 393.416H144.15L146.166 399.05H142.044Z" fill="#566270" fill-opacity="0.6"/>
<rect x="13" y="198" width="221" height="74" rx="8" fill="#8EC0E4"/>
<rect x="13" y="105" width="221" height="74" rx="8" fill="#8EC0E4"/>
<rect x="13" y="290" width="221" height="74" rx="8" fill="#8EC0E4"/>
<path d="M97.576 136.336L96.244 136.984C96.568 137.506 96.892 138.082 97.18 138.73H94.714V140.512H104.92V138.73H102.382C102.742 138.1 103.066 137.416 103.354 136.66L102.454 136.336H104.596V134.644H100.69C100.51 134.068 100.348 133.528 100.168 133.06L98.224 133.384C98.44 133.78 98.62 134.194 98.8 134.644H95.146V136.336H97.576ZM98.962 138.73C98.602 137.866 98.224 137.074 97.81 136.336H101.482C101.176 137.164 100.816 137.974 100.402 138.73H98.962ZM90.952 149.71C92.176 149.71 92.806 149.098 92.806 147.874V142.906C93.22 142.708 93.634 142.51 94.066 142.294V140.386C93.652 140.602 93.238 140.818 92.806 141.034V138.28H94.102V136.462H92.806V133.276H90.898V136.462H88.9V138.28H90.898V141.826C90.124 142.114 89.332 142.33 88.522 142.51L89.008 144.4C89.638 144.184 90.268 143.968 90.898 143.734V147.388C90.898 147.784 90.7 148 90.304 148C89.872 148 89.422 147.964 88.954 147.892L89.368 149.71H90.952ZM97.972 140.71C97.828 141.124 97.648 141.556 97.432 142.024H94.48V143.824H96.532C96.172 144.436 95.794 145.084 95.362 145.75C96.514 146.2 97.576 146.65 98.584 147.082C97.522 147.568 96.1 147.964 94.336 148.288L95.056 149.98C97.558 149.476 99.412 148.828 100.618 148C102.022 148.648 103.174 149.278 104.11 149.854L105.136 148.36C104.11 147.784 103.048 147.262 101.95 146.776C102.634 145.948 103.12 144.976 103.39 143.824H105.226V142.024H99.34C99.484 141.664 99.646 141.304 99.79 140.926L97.972 140.71ZM101.626 143.824C101.338 144.688 100.87 145.408 100.24 146.02C99.394 145.66 98.53 145.318 97.666 145.012C97.918 144.634 98.17 144.238 98.422 143.824H101.626ZM113.938 137.578C112.75 142.114 110.284 145.588 106.558 148.036L107.71 149.656C111.31 147.316 113.704 144.004 114.928 139.738L114.982 139.9C116.908 144.724 119.266 147.982 122.056 149.638L123.226 148.144C120.526 146.416 118.33 143.464 116.62 139.288C115.432 136.282 114.1 134.248 112.624 133.204L111.058 134.212C112.174 135.004 113.128 136.12 113.938 137.578ZM132.226 145.696L133.468 144.454C132.82 143.446 132.19 142.528 131.578 141.7C131.992 140.224 132.334 138.604 132.604 136.804L130.876 136.498C130.714 137.686 130.498 138.838 130.246 139.918C129.634 139.126 129.058 138.442 128.518 137.866L127.456 138.892V135.598H138.544V145.174C137.896 144.094 137.266 143.086 136.654 142.168C137.158 140.584 137.572 138.802 137.878 136.858L136.114 136.552C135.916 137.866 135.664 139.108 135.358 140.278C134.746 139.414 134.17 138.694 133.648 138.082L132.496 139.198C133.27 140.206 134.026 141.232 134.746 142.294C134.134 143.986 133.378 145.462 132.478 146.758L133.666 148.234C134.53 147.082 135.286 145.732 135.934 144.148C136.438 144.94 136.906 145.75 137.374 146.578L138.544 145.408V147.442C138.544 147.838 138.328 148.036 137.914 148.036L136.258 147.946L136.726 149.764H138.526C139.768 149.764 140.398 149.134 140.398 147.874V133.798H125.602V149.89H127.456V139.09C128.212 140.008 128.968 140.962 129.688 141.934C129.148 143.59 128.464 145.066 127.636 146.326L128.824 147.802C129.634 146.65 130.336 145.282 130.93 143.698C131.362 144.346 131.794 145.012 132.226 145.696ZM147.886 133.294L146.158 134.122C146.788 134.896 147.382 135.778 147.958 136.75H144.214V138.586H150.046V139.018C150.01 139.846 149.92 140.638 149.776 141.358H143.188V143.194H149.236C149.02 143.734 148.75 144.238 148.444 144.706C147.472 146.056 145.618 147.19 142.846 148.09L143.872 149.728C146.644 148.864 148.642 147.622 149.866 146.002C150.298 145.39 150.676 144.688 151 143.932C152.062 146.398 154.438 148.396 158.146 149.908L159.262 148.126C155.698 146.902 153.466 145.264 152.602 143.194H158.812V141.358H151.702C151.828 140.638 151.918 139.846 151.954 139.018V138.586H157.768V136.75H154.438C154.996 135.832 155.464 134.806 155.86 133.672L154.024 133.168C153.538 134.536 152.98 135.742 152.332 136.75H148.786L149.83 136.228C149.2 135.166 148.552 134.194 147.886 133.294Z" fill="#566270" fill-opacity="0.6"/>
<path d="M100.942 242.37V244.206H113.812V242.37H110.374C111.382 239.832 112.228 236.97 112.912 233.766L111.04 233.244C110.266 236.844 109.366 239.886 108.34 242.37H100.942ZM103.282 234.126L101.662 234.666C102.382 236.736 102.958 238.896 103.426 241.146L105.208 240.678C104.632 238.212 104.002 236.034 103.282 234.126ZM106.72 232.812L105.1 233.352C105.712 235.494 106.198 237.726 106.594 240.03L108.376 239.58C107.89 237.042 107.332 234.792 106.72 232.812ZM106.846 228.096L104.74 228.456C105.028 228.87 105.298 229.32 105.55 229.806H99.052V235.296C99.016 238.788 98.548 241.524 97.648 243.486L99.25 244.908C100.33 242.496 100.906 239.292 100.96 235.296V231.624H114.082V229.806H107.638C107.386 229.176 107.116 228.6 106.846 228.096ZM119.158 234.864H123.118V237.456H119.158V234.864ZM119.068 239.184H123.118V244.26H125.026V239.184H129.31V241.686C129.31 242.37 129.022 242.73 128.482 242.73C127.87 242.73 127.222 242.694 126.502 242.622L127.006 244.458H129.076C130.498 244.458 131.218 243.756 131.218 242.37V228.78H117.268V237.69C117.232 240.03 116.692 241.956 115.63 243.468L117.07 244.764C118.168 243.288 118.834 241.416 119.068 239.184ZM129.31 237.456H125.026V234.864H129.31V237.456ZM129.31 233.136H125.026V230.616H129.31V233.136ZM123.118 230.616V233.136H119.158V230.616H123.118ZM138.76 234.954V236.574H148.678V234.954H138.76ZM137.5 237.87V239.562H141.082C139.966 241.254 139.048 242.316 138.364 242.73C138.274 242.784 138.148 242.838 137.986 242.892L138.4 244.458C141.712 244.242 144.772 243.936 147.58 243.558C147.886 243.99 148.174 244.422 148.444 244.854L149.938 243.792C149.182 242.676 148.084 241.362 146.662 239.85L145.294 240.696C145.69 241.164 146.086 241.632 146.464 242.1C144.52 242.388 142.558 242.622 140.614 242.784C141.334 242.046 142.162 240.966 143.08 239.562H149.848V237.87H137.5ZM147.256 230.49V232.038H137.32V230.49H147.256ZM137.32 233.73H149.11V228.78H135.466V234.972C135.448 238.464 134.872 241.326 133.738 243.54L135.124 244.782C136.564 242.046 137.302 238.77 137.32 234.972V233.73Z" fill="#566270" fill-opacity="0.6"/>
<path d="M111.26 323.148V336H115.958C118.046 336 119.612 335.424 120.692 334.272C121.718 333.174 122.24 331.608 122.24 329.574C122.24 327.522 121.718 325.956 120.692 324.876C119.612 323.724 118.046 323.148 115.958 323.148H111.26ZM113.366 324.948H115.562C117.164 324.948 118.334 325.308 119.072 326.046C119.792 326.766 120.152 327.954 120.152 329.574C120.152 331.158 119.792 332.328 119.072 333.084C118.334 333.822 117.164 334.2 115.562 334.2H113.366V324.948ZM124.215 323.148V336H130.119C131.487 336 132.567 335.748 133.323 335.244C134.205 334.632 134.655 333.678 134.655 332.382C134.655 331.518 134.439 330.816 134.025 330.312C133.593 329.79 132.963 329.448 132.117 329.286C132.765 329.034 133.251 328.692 133.593 328.224C133.935 327.72 134.115 327.108 134.115 326.388C134.115 325.416 133.773 324.642 133.107 324.066C132.387 323.454 131.379 323.148 130.101 323.148H124.215ZM126.321 324.876H129.579C130.443 324.876 131.055 325.02 131.451 325.308C131.811 325.578 132.009 326.028 132.009 326.64C132.009 327.306 131.811 327.792 131.451 328.098C131.073 328.386 130.443 328.548 129.543 328.548H126.321V324.876ZM126.321 330.276H129.867C130.803 330.276 131.487 330.438 131.919 330.762C132.333 331.086 132.549 331.608 132.549 332.346C132.549 333.066 132.261 333.57 131.685 333.894C131.235 334.146 130.605 334.272 129.813 334.272H126.321V330.276Z" fill="#566270" fill-opacity="0.6"/>
<path d="M122.293 213.707C122.683 214.098 123.317 214.098 123.707 213.707L130.071 207.343C130.462 206.953 130.462 206.319 130.071 205.929C129.681 205.538 129.047 205.538 128.657 205.929L123 211.586L117.343 205.929C116.953 205.538 116.319 205.538 115.929 205.929C115.538 206.319 115.538 206.953 115.929 207.343L122.293 213.707ZM122 166V213H124V166H122Z" fill="#566270" fill-opacity="0.6"/>
<path d="M122.293 310.707C122.683 311.098 123.317 311.098 123.707 310.707L130.071 304.343C130.462 303.953 130.462 303.319 130.071 302.929C129.681 302.538 129.047 302.538 128.657 302.929L123 308.586L117.343 302.929C116.953 302.538 116.319 302.538 115.929 302.929C115.538 303.319 115.538 303.953 115.929 304.343L122.293 310.707ZM122 252V310H124V252H122Z" fill="#566270" fill-opacity="0.6"/>
<rect x="58" y="8" width="132" height="51" rx="8" fill="#D4DFE6"/>
<path d="M92.158 33.864H96.118V36.456H92.158V33.864ZM92.068 38.184H96.118V43.26H98.026V38.184H102.31V40.686C102.31 41.37 102.022 41.73 101.482 41.73C100.87 41.73 100.222 41.694 99.502 41.622L100.006 43.458H102.076C103.498 43.458 104.218 42.756 104.218 41.37V27.78H90.268V36.69C90.232 39.03 89.692 40.956 88.63 42.468L90.07 43.764C91.168 42.288 91.834 40.416 92.068 38.184ZM102.31 36.456H98.026V33.864H102.31V36.456ZM102.31 32.136H98.026V29.616H102.31V32.136ZM96.118 29.616V32.136H92.158V29.616H96.118ZM119.986 31.074V33.936H110.374V31.074H119.986ZM110.356 35.772H121.894V29.238H116.188C115.9 28.428 115.63 27.708 115.342 27.06L113.326 27.384C113.668 27.96 113.974 28.572 114.262 29.238H108.52V35.214C108.502 38.274 107.818 40.776 106.486 42.702L107.89 43.98C109.438 41.676 110.248 38.94 110.356 35.772ZM130.012 39.696C128.968 40.488 127.276 41.226 124.954 41.892L125.944 43.512C128.806 42.432 130.804 41.172 131.956 39.696H132.118V43.908H133.99V39.696H134.152C135.412 41.226 137.446 42.468 140.254 43.44L141.064 41.766C138.94 41.244 137.284 40.56 136.114 39.696H140.83V37.986H133.99V37.338H132.118V37.986H125.17V39.696H130.012ZM126.754 32.316V37.014H140.308V35.466H134.458V34.638H139.228V33.234H134.458V32.46H139.228V31.056H134.458V30.264H139.966V28.716H134.35C134.134 28.104 133.9 27.564 133.666 27.06L131.74 27.384C132.01 27.798 132.262 28.248 132.496 28.716H129.202C129.382 28.32 129.562 27.924 129.706 27.51L127.96 27.132C127.222 28.986 126.106 30.588 124.63 31.938L125.728 33.36C126.088 33.018 126.43 32.676 126.754 32.316ZM132.604 35.466H128.482V34.638H132.604V35.466ZM132.604 33.234H128.482V32.46H132.604V33.234ZM132.604 31.056H128.482V30.264H132.604V31.056ZM152.908 29.148L147.994 42H150.244L151.414 38.778H156.796L157.966 42H160.216L155.302 29.148H152.908ZM152.044 37.05L154.078 31.416H154.15L156.166 37.05H152.044Z" fill="#566270" fill-opacity="0.6"/>
<rect x="474" y="8" width="132" height="51" rx="8" fill="#D4DFE6"/>
<path d="M508.158 33.864H512.118V36.456H508.158V33.864ZM508.068 38.184H512.118V43.26H514.026V38.184H518.31V40.686C518.31 41.37 518.022 41.73 517.482 41.73C516.87 41.73 516.222 41.694 515.502 41.622L516.006 43.458H518.076C519.498 43.458 520.218 42.756 520.218 41.37V27.78H506.268V36.69C506.232 39.03 505.692 40.956 504.63 42.468L506.07 43.764C507.168 42.288 507.834 40.416 508.068 38.184ZM518.31 36.456H514.026V33.864H518.31V36.456ZM518.31 32.136H514.026V29.616H518.31V32.136ZM512.118 29.616V32.136H508.158V29.616H512.118ZM535.986 31.074V33.936H526.374V31.074H535.986ZM526.356 35.772H537.894V29.238H532.188C531.9 28.428 531.63 27.708 531.342 27.06L529.326 27.384C529.668 27.96 529.974 28.572 530.262 29.238H524.52V35.214C524.502 38.274 523.818 40.776 522.486 42.702L523.89 43.98C525.438 41.676 526.248 38.94 526.356 35.772ZM546.012 39.696C544.968 40.488 543.276 41.226 540.954 41.892L541.944 43.512C544.806 42.432 546.804 41.172 547.956 39.696H548.118V43.908H549.99V39.696H550.152C551.412 41.226 553.446 42.468 556.254 43.44L557.064 41.766C554.94 41.244 553.284 40.56 552.114 39.696H556.83V37.986H549.99V37.338H548.118V37.986H541.17V39.696H546.012ZM542.754 32.316V37.014H556.308V35.466H550.458V34.638H555.228V33.234H550.458V32.46H555.228V31.056H550.458V30.264H555.966V28.716H550.35C550.134 28.104 549.9 27.564 549.666 27.06L547.74 27.384C548.01 27.798 548.262 28.248 548.496 28.716H545.202C545.382 28.32 545.562 27.924 545.706 27.51L543.96 27.132C543.222 28.986 542.106 30.588 540.63 31.938L541.728 33.36C542.088 33.018 542.43 32.676 542.754 32.316ZM548.604 35.466H544.482V34.638H548.604V35.466ZM548.604 33.234H544.482V32.46H548.604V33.234ZM548.604 31.056H544.482V30.264H548.604V31.056ZM565.254 29.148V42H571.158C572.526 42 573.606 41.748 574.362 41.244C575.244 40.632 575.694 39.678 575.694 38.382C575.694 37.518 575.478 36.816 575.064 36.312C574.632 35.79 574.002 35.448 573.156 35.286C573.804 35.034 574.29 34.692 574.632 34.224C574.974 33.72 575.154 33.108 575.154 32.388C575.154 31.416 574.812 30.642 574.146 30.066C573.426 29.454 572.418 29.148 571.14 29.148H565.254ZM567.36 30.876H570.618C571.482 30.876 572.094 31.02 572.49 31.308C572.85 31.578 573.048 32.028 573.048 32.64C573.048 33.306 572.85 33.792 572.49 34.098C572.112 34.386 571.482 34.548 570.582 34.548H567.36V30.876ZM567.36 36.276H570.906C571.842 36.276 572.526 36.438 572.958 36.762C573.372 37.086 573.588 37.608 573.588 38.346C573.588 39.066 573.3 39.57 572.724 39.894C572.274 40.146 571.644 40.272 570.852 40.272H567.36V36.276Z" fill="#566270" fill-opacity="0.6"/>
<path d="M122.293 114.707C122.683 115.098 123.317 115.098 123.707 114.707L130.071 108.343C130.462 107.953 130.462 107.319 130.071 106.929C129.681 106.538 129.047 106.538 128.657 106.929L123 112.586L117.343 106.929C116.953 106.538 116.319 106.538 115.929 106.929C115.538 107.319 115.538 107.953 115.929 108.343L122.293 114.707ZM122 48V114H124V48H122Z" fill="#566270" fill-opacity="0.6"/>
<g filter="url(#filter1_d)">
<rect x="417" y="84" width="247" height="344" rx="8" fill="#D4DFE6"/>
</g>
<path d="M513.972 392.534V394.352H516.348C515.754 396.368 514.836 398.15 513.576 399.698L514.386 401.75C515.196 400.49 515.88 399.122 516.438 397.646V405.8H518.31V396.944C518.688 397.574 519.12 398.348 519.624 399.248L520.722 397.592C519.912 396.656 519.102 395.792 518.31 395.018V394.352H520.326V392.534H518.31V389.222H516.438V392.534H513.972ZM519.21 404.648L520.758 406.016C521.604 404.684 522.18 403.28 522.486 401.84C522.81 400.4 522.972 398.672 522.972 396.638V391.544H525.528V403.658C525.528 404.846 526.212 405.458 527.598 405.458H528.408C529.038 405.458 529.506 405.332 529.794 405.098C530.082 404.81 530.262 404.342 530.334 403.658C530.406 402.974 530.46 401.93 530.46 400.562L528.732 400.022C528.732 401.93 528.696 403.028 528.624 403.28C528.588 403.406 528.552 403.514 528.48 403.586C528.408 403.658 528.3 403.694 528.156 403.694H527.616C527.49 403.694 527.436 403.604 527.436 403.442V389.78H521.1V396.638C521.1 398.672 520.974 400.202 520.74 401.228C520.452 402.416 519.93 403.568 519.21 404.648ZM538.38 398.942C538.164 401.426 536.958 403.19 534.726 404.216L535.752 405.854C537.588 404.918 538.866 403.586 539.622 401.876H544.932C544.842 402.866 544.788 403.46 544.752 403.64C544.68 403.82 544.536 403.946 544.32 404.018C544.068 404.09 543.51 404.144 542.628 404.144C542.232 404.144 541.854 404.126 541.458 404.09L541.962 405.782H542.142C543.888 405.782 545.004 405.692 545.49 405.548C545.958 405.404 546.282 405.116 546.444 404.684C546.588 404.252 546.732 402.758 546.84 400.184H540.126C540.198 399.788 540.252 399.374 540.288 398.942H548.046V397.178H542.556C542.412 396.674 542.268 396.206 542.124 395.792L540.126 396.116C540.288 396.44 540.432 396.8 540.576 397.178H535.788V398.942H538.38ZM545.346 392.174V393.884H535.284V392.174H545.346ZM535.284 395.612H547.2V390.428H541.332C541.17 389.924 541.008 389.456 540.846 389.024L538.812 389.348C538.974 389.672 539.136 390.032 539.28 390.428H533.394V396.926C533.376 400.076 532.764 402.65 531.54 404.63L532.944 405.89C534.492 403.388 535.266 400.4 535.284 396.926V395.612ZM556.254 391.148V404H562.158C563.526 404 564.606 403.748 565.362 403.244C566.244 402.632 566.694 401.678 566.694 400.382C566.694 399.518 566.478 398.816 566.064 398.312C565.632 397.79 565.002 397.448 564.156 397.286C564.804 397.034 565.29 396.692 565.632 396.224C565.974 395.72 566.154 395.108 566.154 394.388C566.154 393.416 565.812 392.642 565.146 392.066C564.426 391.454 563.418 391.148 562.14 391.148H556.254ZM558.36 392.876H561.618C562.482 392.876 563.094 393.02 563.49 393.308C563.85 393.578 564.048 394.028 564.048 394.64C564.048 395.306 563.85 395.792 563.49 396.098C563.112 396.386 562.482 396.548 561.582 396.548H558.36V392.876ZM558.36 398.276H561.906C562.842 398.276 563.526 398.438 563.958 398.762C564.372 399.086 564.588 399.608 564.588 400.346C564.588 401.066 564.3 401.57 563.724 401.894C563.274 402.146 562.644 402.272 561.852 402.272H558.36V398.276Z" fill="#566270" fill-opacity="0.6"/>
<rect x="430" y="198" width="221" height="74" rx="8" fill="#8EC0E4"/>
<rect x="430" y="105" width="221" height="74" rx="8" fill="#8EC0E4"/>
<path d="M514.576 136.336L513.244 136.984C513.568 137.506 513.892 138.082 514.18 138.73H511.714V140.512H521.92V138.73H519.382C519.742 138.1 520.066 137.416 520.354 136.66L519.454 136.336H521.596V134.644H517.69C517.51 134.068 517.348 133.528 517.168 133.06L515.224 133.384C515.44 133.78 515.62 134.194 515.8 134.644H512.146V136.336H514.576ZM515.962 138.73C515.602 137.866 515.224 137.074 514.81 136.336H518.482C518.176 137.164 517.816 137.974 517.402 138.73H515.962ZM507.952 149.71C509.176 149.71 509.806 149.098 509.806 147.874V142.906C510.22 142.708 510.634 142.51 511.066 142.294V140.386C510.652 140.602 510.238 140.818 509.806 141.034V138.28H511.102V136.462H509.806V133.276H507.898V136.462H505.9V138.28H507.898V141.826C507.124 142.114 506.332 142.33 505.522 142.51L506.008 144.4C506.638 144.184 507.268 143.968 507.898 143.734V147.388C507.898 147.784 507.7 148 507.304 148C506.872 148 506.422 147.964 505.954 147.892L506.368 149.71H507.952ZM514.972 140.71C514.828 141.124 514.648 141.556 514.432 142.024H511.48V143.824H513.532C513.172 144.436 512.794 145.084 512.362 145.75C513.514 146.2 514.576 146.65 515.584 147.082C514.522 147.568 513.1 147.964 511.336 148.288L512.056 149.98C514.558 149.476 516.412 148.828 517.618 148C519.022 148.648 520.174 149.278 521.11 149.854L522.136 148.36C521.11 147.784 520.048 147.262 518.95 146.776C519.634 145.948 520.12 144.976 520.39 143.824H522.226V142.024H516.34C516.484 141.664 516.646 141.304 516.79 140.926L514.972 140.71ZM518.626 143.824C518.338 144.688 517.87 145.408 517.24 146.02C516.394 145.66 515.53 145.318 514.666 145.012C514.918 144.634 515.17 144.238 515.422 143.824H518.626ZM530.938 137.578C529.75 142.114 527.284 145.588 523.558 148.036L524.71 149.656C528.31 147.316 530.704 144.004 531.928 139.738L531.982 139.9C533.908 144.724 536.266 147.982 539.056 149.638L540.226 148.144C537.526 146.416 535.33 143.464 533.62 139.288C532.432 136.282 531.1 134.248 529.624 133.204L528.058 134.212C529.174 135.004 530.128 136.12 530.938 137.578ZM549.226 145.696L550.468 144.454C549.82 143.446 549.19 142.528 548.578 141.7C548.992 140.224 549.334 138.604 549.604 136.804L547.876 136.498C547.714 137.686 547.498 138.838 547.246 139.918C546.634 139.126 546.058 138.442 545.518 137.866L544.456 138.892V135.598H555.544V145.174C554.896 144.094 554.266 143.086 553.654 142.168C554.158 140.584 554.572 138.802 554.878 136.858L553.114 136.552C552.916 137.866 552.664 139.108 552.358 140.278C551.746 139.414 551.17 138.694 550.648 138.082L549.496 139.198C550.27 140.206 551.026 141.232 551.746 142.294C551.134 143.986 550.378 145.462 549.478 146.758L550.666 148.234C551.53 147.082 552.286 145.732 552.934 144.148C553.438 144.94 553.906 145.75 554.374 146.578L555.544 145.408V147.442C555.544 147.838 555.328 148.036 554.914 148.036L553.258 147.946L553.726 149.764H555.526C556.768 149.764 557.398 149.134 557.398 147.874V133.798H542.602V149.89H544.456V139.09C545.212 140.008 545.968 140.962 546.688 141.934C546.148 143.59 545.464 145.066 544.636 146.326L545.824 147.802C546.634 146.65 547.336 145.282 547.93 143.698C548.362 144.346 548.794 145.012 549.226 145.696ZM564.886 133.294L563.158 134.122C563.788 134.896 564.382 135.778 564.958 136.75H561.214V138.586H567.046V139.018C567.01 139.846 566.92 140.638 566.776 141.358H560.188V143.194H566.236C566.02 143.734 565.75 144.238 565.444 144.706C564.472 146.056 562.618 147.19 559.846 148.09L560.872 149.728C563.644 148.864 565.642 147.622 566.866 146.002C567.298 145.39 567.676 144.688 568 143.932C569.062 146.398 571.438 148.396 575.146 149.908L576.262 148.126C572.698 146.902 570.466 145.264 569.602 143.194H575.812V141.358H568.702C568.828 140.638 568.918 139.846 568.954 139.018V138.586H574.768V136.75H571.438C571.996 135.832 572.464 134.806 572.86 133.672L571.024 133.168C570.538 134.536 569.98 135.742 569.332 136.75H565.786L566.83 136.228C566.2 135.166 565.552 134.194 564.886 133.294Z" fill="#566270" fill-opacity="0.6"/>
<path d="M517.942 242.37V244.206H530.812V242.37H527.374C528.382 239.832 529.228 236.97 529.912 233.766L528.04 233.244C527.266 236.844 526.366 239.886 525.34 242.37H517.942ZM520.282 234.126L518.662 234.666C519.382 236.736 519.958 238.896 520.426 241.146L522.208 240.678C521.632 238.212 521.002 236.034 520.282 234.126ZM523.72 232.812L522.1 233.352C522.712 235.494 523.198 237.726 523.594 240.03L525.376 239.58C524.89 237.042 524.332 234.792 523.72 232.812ZM523.846 228.096L521.74 228.456C522.028 228.87 522.298 229.32 522.55 229.806H516.052V235.296C516.016 238.788 515.548 241.524 514.648 243.486L516.25 244.908C517.33 242.496 517.906 239.292 517.96 235.296V231.624H531.082V229.806H524.638C524.386 229.176 524.116 228.6 523.846 228.096ZM536.158 234.864H540.118V237.456H536.158V234.864ZM536.068 239.184H540.118V244.26H542.026V239.184H546.31V241.686C546.31 242.37 546.022 242.73 545.482 242.73C544.87 242.73 544.222 242.694 543.502 242.622L544.006 244.458H546.076C547.498 244.458 548.218 243.756 548.218 242.37V228.78H534.268V237.69C534.232 240.03 533.692 241.956 532.63 243.468L534.07 244.764C535.168 243.288 535.834 241.416 536.068 239.184ZM546.31 237.456H542.026V234.864H546.31V237.456ZM546.31 233.136H542.026V230.616H546.31V233.136ZM540.118 230.616V233.136H536.158V230.616H540.118ZM555.76 234.954V236.574H565.678V234.954H555.76ZM554.5 237.87V239.562H558.082C556.966 241.254 556.048 242.316 555.364 242.73C555.274 242.784 555.148 242.838 554.986 242.892L555.4 244.458C558.712 244.242 561.772 243.936 564.58 243.558C564.886 243.99 565.174 244.422 565.444 244.854L566.938 243.792C566.182 242.676 565.084 241.362 563.662 239.85L562.294 240.696C562.69 241.164 563.086 241.632 563.464 242.1C561.52 242.388 559.558 242.622 557.614 242.784C558.334 242.046 559.162 240.966 560.08 239.562H566.848V237.87H554.5ZM564.256 230.49V232.038H554.32V230.49H564.256ZM554.32 233.73H566.11V228.78H552.466V234.972C552.448 238.464 551.872 241.326 550.738 243.54L552.124 244.782C553.564 242.046 554.302 238.77 554.32 234.972V233.73Z" fill="#566270" fill-opacity="0.6"/>
<path d="M539.293 213.707C539.683 214.098 540.317 214.098 540.707 213.707L547.071 207.343C547.462 206.953 547.462 206.319 547.071 205.929C546.681 205.538 546.047 205.538 545.657 205.929L540 211.586L534.343 205.929C533.953 205.538 533.319 205.538 532.929 205.929C532.538 206.319 532.538 206.953 532.929 207.343L539.293 213.707ZM539 166V213H541V166H539Z" fill="#566270" fill-opacity="0.6"/>
<rect x="429" y="294" width="221" height="74" rx="8" fill="#8EC0E4"/>
<path d="M528.26 323.148V336H532.958C535.046 336 536.612 335.424 537.692 334.272C538.718 333.174 539.24 331.608 539.24 329.574C539.24 327.522 538.718 325.956 537.692 324.876C536.612 323.724 535.046 323.148 532.958 323.148H528.26ZM530.366 324.948H532.562C534.164 324.948 535.334 325.308 536.072 326.046C536.792 326.766 537.152 327.954 537.152 329.574C537.152 331.158 536.792 332.328 536.072 333.084C535.334 333.822 534.164 334.2 532.562 334.2H530.366V324.948ZM541.215 323.148V336H547.119C548.487 336 549.567 335.748 550.323 335.244C551.205 334.632 551.655 333.678 551.655 332.382C551.655 331.518 551.439 330.816 551.025 330.312C550.593 329.79 549.963 329.448 549.117 329.286C549.765 329.034 550.251 328.692 550.593 328.224C550.935 327.72 551.115 327.108 551.115 326.388C551.115 325.416 550.773 324.642 550.107 324.066C549.387 323.454 548.379 323.148 547.101 323.148H541.215ZM543.321 324.876H546.579C547.443 324.876 548.055 325.02 548.451 325.308C548.811 325.578 549.009 326.028 549.009 326.64C549.009 327.306 548.811 327.792 548.451 328.098C548.073 328.386 547.443 328.548 546.543 328.548H543.321V324.876ZM543.321 330.276H546.867C547.803 330.276 548.487 330.438 548.919 330.762C549.333 331.086 549.549 331.608 549.549 332.346C549.549 333.066 549.261 333.57 548.685 333.894C548.235 334.146 547.605 334.272 546.813 334.272H543.321V330.276Z" fill="#566270" fill-opacity="0.6"/>
<path d="M539.293 310.707C539.683 311.098 540.317 311.098 540.707 310.707L547.071 304.343C547.462 303.953 547.462 303.319 547.071 302.929C546.681 302.538 546.047 302.538 545.657 302.929L540 308.586L534.343 302.929C533.953 302.538 533.319 302.538 532.929 302.929C532.538 303.319 532.538 303.953 532.929 304.343L539.293 310.707ZM539 252V310H541V252H539Z" fill="#566270" fill-opacity="0.6"/>
<path d="M212 330L222 335.774V324.226L212 330ZM451.002 330L441.002 324.226V335.774L451.002 330ZM221 331H442.002V329H221V331Z" fill="#6E7783" fill-opacity="0.4"/>
<path d="M539.293 114.707C539.683 115.098 540.317 115.098 540.707 114.707L547.071 108.343C547.462 107.953 547.462 107.319 547.071 106.929C546.681 106.538 546.047 106.538 545.657 106.929L540 112.586L534.343 106.929C533.953 106.538 533.319 106.538 532.929 106.929C532.538 107.319 532.538 107.953 532.929 108.343L539.293 114.707ZM539 48V114H541V48H539Z" fill="#566270" fill-opacity="0.6"/>
<path d="M314.06 324.8C315.668 325.424 317.228 326.24 318.764 327.272L319.232 326.528C317.816 325.616 316.244 324.836 314.54 324.164C314.648 323.996 314.756 323.816 314.864 323.624H319.076V322.808H315.224C315.488 322.064 315.632 321.212 315.668 320.264V318.848H314.828V320.264C314.792 321.212 314.624 322.064 314.312 322.808H308.936V323.624H313.892C313.772 323.816 313.652 323.996 313.508 324.164C312.62 325.124 311.06 325.904 308.828 326.48L309.308 327.212C311.504 326.636 313.088 325.832 314.06 324.8ZM310.532 320.492L310.1 321.14C310.916 321.464 311.72 321.92 312.488 322.496L312.932 321.812C312.212 321.308 311.408 320.864 310.532 320.492ZM311.612 318.776L311.168 319.424C312.008 319.76 312.836 320.228 313.64 320.828L314.084 320.144C313.34 319.604 312.512 319.148 311.612 318.776ZM318.872 317.372H314.528C314.372 316.904 314.216 316.484 314.06 316.124L313.172 316.268C313.352 316.604 313.52 316.964 313.664 317.372H309.104V319.676H309.944V318.176H318.032V319.676H318.872V317.372ZM324.44 317.096H320.984V326.228H321.824V325.136H323.6V325.94H324.44V317.096ZM321.824 324.332V321.44H323.6V324.332H321.824ZM321.824 320.636V317.888H323.6V320.636H321.824ZM326.168 320.672L325.46 321.116C326.18 322.22 326.744 323.228 327.164 324.128L327.884 323.624C327.488 322.784 326.912 321.8 326.168 320.672ZM328.904 327.08C329.648 327.08 330.02 326.696 330.02 325.94V319.232H331.496V318.404H330.02V316.292H329.144V318.404H324.992V319.232H329.144V325.724C329.144 326.096 328.964 326.288 328.616 326.288C327.98 326.288 327.32 326.264 326.624 326.24L326.804 327.08H328.904ZM341.768 327.152C342.464 327.152 342.812 326.756 342.812 325.976V316.664H333.188V327.188H334.052V317.504H341.948V325.784C341.948 326.144 341.792 326.324 341.492 326.324L339.932 326.288L340.172 327.152H341.768ZM334.928 318.884V319.688H341.084V318.884H334.928ZM335.6 320.984V324.848H340.412V320.984H335.6ZM339.572 324.08H336.44V321.764H339.572V324.08ZM349.628 316.172V320.108H347.384V317.108H346.508V320.108H344.672V320.948H349.7V324.572H350.564V320.948H355.328V320.108H350.504V318.452H354.14V317.624H350.504V316.172H349.628ZM353.54 321.824C352.22 324.884 349.484 326.42 345.332 326.42L345.644 327.248C349.916 327.236 352.82 325.568 354.332 322.244L353.54 321.824ZM347.552 321.488C346.856 322.544 345.992 323.468 344.972 324.26L345.512 324.956C346.568 324.128 347.444 323.156 348.164 322.04L347.552 321.488Z" fill="#566270" fill-opacity="0.6"/>
<defs>
<filter id="filter0_d" x="0" y="84" width="255" height="352" filterUnits="userSpaceOnUse" color-interpolation-filters="sRGB">
<feFlood flood-opacity="0" result="BackgroundImageFix"/>
<feColorMatrix in="SourceAlpha" type="matrix" values="0 0 0 0 0 0 0 0 0 0 0 0 0 0 0 0 0 0 127 0"/>
<feOffset dx="4" dy="4"/>
<feGaussianBlur stdDeviation="2"/>
<feColorMatrix type="matrix" values="0 0 0 0 0 0 0 0 0 0 0 0 0 0 0 0 0 0 0.25 0"/>
<feBlend mode="normal" in2="BackgroundImageFix" result="effect1_dropShadow"/>
<feBlend mode="normal" in="SourceGraphic" in2="effect1_dropShadow" result="shape"/>
</filter>
<filter id="filter1_d" x="417" y="84" width="255" height="352" filterUnits="userSpaceOnUse" color-interpolation-filters="sRGB">
<feFlood flood-opacity="0" result="BackgroundImageFix"/>
<feColorMatrix in="SourceAlpha" type="matrix" values="0 0 0 0 0 0 0 0 0 0 0 0 0 0 0 0 0 0 127 0"/>
<feOffset dx="4" dy="4"/>
<feGaussianBlur stdDeviation="2"/>
<feColorMatrix type="matrix" values="0 0 0 0 0 0 0 0 0 0 0 0 0 0 0 0 0 0 0.25 0"/>
<feBlend mode="normal" in2="BackgroundImageFix" result="effect1_dropShadow"/>
<feBlend mode="normal" in="SourceGraphic" in2="effect1_dropShadow" result="shape"/>
</filter>
</defs>
</svg>
