<svg width="671" height="464" viewBox="0 0 671 464" fill="none" xmlns="http://www.w3.org/2000/svg">
<g filter="url(#filter0_d)">
<rect y="88" width="247" height="368" rx="8" fill="#D4DFE6"/>
</g>
<rect x="13" y="314" width="221" height="92" rx="8" fill="#8EC0E4"/>
<rect x="23" y="353" width="44" height="39" rx="4" fill="#D4DFE6"/>
<path d="M43.368 368.576L39 380H41L42.04 377.136H46.824L47.864 380H49.864L45.496 368.576H43.368ZM42.6 375.6L44.408 370.592H44.472L46.264 375.6H42.6Z" fill="#566270" fill-opacity="0.6"/>
<rect x="75" y="353" width="44" height="39" rx="4" fill="#D4DFE6"/>
<path d="M92.12 369.576V381H97.368C98.584 381 99.544 380.776 100.216 380.328C101 379.784 101.4 378.936 101.4 377.784C101.4 377.016 101.208 376.392 100.84 375.944C100.456 375.48 99.896 375.176 99.144 375.032C99.72 374.808 100.152 374.504 100.456 374.088C100.76 373.64 100.92 373.096 100.92 372.456C100.92 371.592 100.616 370.904 100.024 370.392C99.384 369.848 98.488 369.576 97.352 369.576H92.12ZM93.992 371.112H96.888C97.656 371.112 98.2 371.24 98.552 371.496C98.872 371.736 99.048 372.136 99.048 372.68C99.048 373.272 98.872 373.704 98.552 373.976C98.216 374.232 97.656 374.376 96.856 374.376H93.992V371.112ZM93.992 375.912H97.144C97.976 375.912 98.584 376.056 98.968 376.344C99.336 376.632 99.528 377.096 99.528 377.752C99.528 378.392 99.272 378.84 98.76 379.128C98.36 379.352 97.8 379.464 97.096 379.464H93.992V375.912Z" fill="#566270" fill-opacity="0.6"/>
<rect x="127" y="353" width="44" height="39" rx="4" fill="#D4DFE6"/>
<path d="M149.08 368.352C147.256 368.352 145.864 368.944 144.904 370.16C144.056 371.216 143.64 372.608 143.64 374.304C143.64 376.032 144.04 377.408 144.856 378.432C145.784 379.616 147.208 380.224 149.112 380.224C150.344 380.224 151.4 379.872 152.28 379.168C153.224 378.416 153.816 377.376 154.072 376.032H152.248C152.024 376.896 151.64 377.552 151.096 377.984C150.584 378.368 149.912 378.576 149.096 378.576C147.848 378.576 146.92 378.176 146.328 377.408C145.784 376.688 145.512 375.648 145.512 374.304C145.512 372.992 145.784 371.968 146.344 371.232C146.952 370.4 147.848 370 149.048 370C149.848 370 150.504 370.16 151.016 370.512C151.544 370.864 151.896 371.408 152.088 372.16H153.912C153.736 371.008 153.24 370.08 152.408 369.408C151.544 368.704 150.424 368.352 149.08 368.352ZM155.999 368.576L156.255 372.672H157.695L157.935 368.576H155.999Z" fill="#566270" fill-opacity="0.6"/>
<rect x="179" y="353" width="44" height="39" rx="4" fill="#D4DFE6"/>
<path d="M196.12 368.576V380H200.296C202.152 380 203.544 379.488 204.504 378.464C205.416 377.488 205.88 376.096 205.88 374.288C205.88 372.464 205.416 371.072 204.504 370.112C203.544 369.088 202.152 368.576 200.296 368.576H196.12ZM197.992 370.176H199.944C201.368 370.176 202.408 370.496 203.064 371.152C203.704 371.792 204.024 372.848 204.024 374.288C204.024 375.696 203.704 376.736 203.064 377.408C202.408 378.064 201.368 378.4 199.944 378.4H197.992V370.176ZM207.796 368.576L208.052 372.672H209.492L209.732 368.576H207.796Z" fill="#566270" fill-opacity="0.6"/>
<path d="M32.98 326.004V336H36.634C38.258 336 39.476 335.552 40.316 334.656C41.114 333.802 41.52 332.584 41.52 331.002C41.52 329.406 41.114 328.188 40.316 327.348C39.476 326.452 38.258 326.004 36.634 326.004H32.98ZM34.618 327.404H36.326C37.572 327.404 38.482 327.684 39.056 328.258C39.616 328.818 39.896 329.742 39.896 331.002C39.896 332.234 39.616 333.144 39.056 333.732C38.482 334.306 37.572 334.6 36.326 334.6H34.618V327.404ZM43.0562 326.004V336H47.6482C48.7122 336 49.5522 335.804 50.1402 335.412C50.8262 334.936 51.1762 334.194 51.1762 333.186C51.1762 332.514 51.0082 331.968 50.6862 331.576C50.3502 331.17 49.8602 330.904 49.2022 330.778C49.7062 330.582 50.0842 330.316 50.3502 329.952C50.6162 329.56 50.7562 329.084 50.7562 328.524C50.7562 327.768 50.4902 327.166 49.9722 326.718C49.4122 326.242 48.6282 326.004 47.6342 326.004H43.0562ZM44.6942 327.348H47.2282C47.9002 327.348 48.3762 327.46 48.6842 327.684C48.9642 327.894 49.1182 328.244 49.1182 328.72C49.1182 329.238 48.9642 329.616 48.6842 329.854C48.3902 330.078 47.9002 330.204 47.2002 330.204H44.6942V327.348ZM44.6942 331.548H47.4522C48.1802 331.548 48.7122 331.674 49.0482 331.926C49.3702 332.178 49.5382 332.584 49.5382 333.158C49.5382 333.718 49.3142 334.11 48.8662 334.362C48.5162 334.558 48.0262 334.656 47.4102 334.656H44.6942V331.548Z" fill="#566270" fill-opacity="0.6"/>
<path d="M96.972 423.534V425.352H99.348C98.754 427.368 97.836 429.15 96.576 430.698L97.386 432.75C98.196 431.49 98.88 430.122 99.438 428.646V436.8H101.31V427.944C101.688 428.574 102.12 429.348 102.624 430.248L103.722 428.592C102.912 427.656 102.102 426.792 101.31 426.018V425.352H103.326V423.534H101.31V420.222H99.438V423.534H96.972ZM102.21 435.648L103.758 437.016C104.604 435.684 105.18 434.28 105.486 432.84C105.81 431.4 105.972 429.672 105.972 427.638V422.544H108.528V434.658C108.528 435.846 109.212 436.458 110.598 436.458H111.408C112.038 436.458 112.506 436.332 112.794 436.098C113.082 435.81 113.262 435.342 113.334 434.658C113.406 433.974 113.46 432.93 113.46 431.562L111.732 431.022C111.732 432.93 111.696 434.028 111.624 434.28C111.588 434.406 111.552 434.514 111.48 434.586C111.408 434.658 111.3 434.694 111.156 434.694H110.616C110.49 434.694 110.436 434.604 110.436 434.442V420.78H104.1V427.638C104.1 429.672 103.974 431.202 103.74 432.228C103.452 433.416 102.93 434.568 102.21 435.648ZM121.38 429.942C121.164 432.426 119.958 434.19 117.726 435.216L118.752 436.854C120.588 435.918 121.866 434.586 122.622 432.876H127.932C127.842 433.866 127.788 434.46 127.752 434.64C127.68 434.82 127.536 434.946 127.32 435.018C127.068 435.09 126.51 435.144 125.628 435.144C125.232 435.144 124.854 435.126 124.458 435.09L124.962 436.782H125.142C126.888 436.782 128.004 436.692 128.49 436.548C128.958 436.404 129.282 436.116 129.444 435.684C129.588 435.252 129.732 433.758 129.84 431.184H123.126C123.198 430.788 123.252 430.374 123.288 429.942H131.046V428.178H125.556C125.412 427.674 125.268 427.206 125.124 426.792L123.126 427.116C123.288 427.44 123.432 427.8 123.576 428.178H118.788V429.942H121.38ZM128.346 423.174V424.884H118.284V423.174H128.346ZM118.284 426.612H130.2V421.428H124.332C124.17 420.924 124.008 420.456 123.846 420.024L121.812 420.348C121.974 420.672 122.136 421.032 122.28 421.428H116.394V427.926C116.376 431.076 115.764 433.65 114.54 435.63L115.944 436.89C117.492 434.388 118.266 431.4 118.284 427.926V426.612ZM142.908 422.148L137.994 435H140.244L141.414 431.778H146.796L147.966 435H150.216L145.302 422.148H142.908ZM142.044 430.05L144.078 424.416H144.15L146.166 430.05H142.044Z" fill="#566270" fill-opacity="0.6"/>
<rect x="13" y="202" width="221" height="92" rx="8" fill="#8EC0E4"/>
<rect x="13" y="109" width="221" height="74" rx="8" fill="#8EC0E4"/>
<path d="M97.576 140.336L96.244 140.984C96.568 141.506 96.892 142.082 97.18 142.73H94.714V144.512H104.92V142.73H102.382C102.742 142.1 103.066 141.416 103.354 140.66L102.454 140.336H104.596V138.644H100.69C100.51 138.068 100.348 137.528 100.168 137.06L98.224 137.384C98.44 137.78 98.62 138.194 98.8 138.644H95.146V140.336H97.576ZM98.962 142.73C98.602 141.866 98.224 141.074 97.81 140.336H101.482C101.176 141.164 100.816 141.974 100.402 142.73H98.962ZM90.952 153.71C92.176 153.71 92.806 153.098 92.806 151.874V146.906C93.22 146.708 93.634 146.51 94.066 146.294V144.386C93.652 144.602 93.238 144.818 92.806 145.034V142.28H94.102V140.462H92.806V137.276H90.898V140.462H88.9V142.28H90.898V145.826C90.124 146.114 89.332 146.33 88.522 146.51L89.008 148.4C89.638 148.184 90.268 147.968 90.898 147.734V151.388C90.898 151.784 90.7 152 90.304 152C89.872 152 89.422 151.964 88.954 151.892L89.368 153.71H90.952ZM97.972 144.71C97.828 145.124 97.648 145.556 97.432 146.024H94.48V147.824H96.532C96.172 148.436 95.794 149.084 95.362 149.75C96.514 150.2 97.576 150.65 98.584 151.082C97.522 151.568 96.1 151.964 94.336 152.288L95.056 153.98C97.558 153.476 99.412 152.828 100.618 152C102.022 152.648 103.174 153.278 104.11 153.854L105.136 152.36C104.11 151.784 103.048 151.262 101.95 150.776C102.634 149.948 103.12 148.976 103.39 147.824H105.226V146.024H99.34C99.484 145.664 99.646 145.304 99.79 144.926L97.972 144.71ZM101.626 147.824C101.338 148.688 100.87 149.408 100.24 150.02C99.394 149.66 98.53 149.318 97.666 149.012C97.918 148.634 98.17 148.238 98.422 147.824H101.626ZM113.938 141.578C112.75 146.114 110.284 149.588 106.558 152.036L107.71 153.656C111.31 151.316 113.704 148.004 114.928 143.738L114.982 143.9C116.908 148.724 119.266 151.982 122.056 153.638L123.226 152.144C120.526 150.416 118.33 147.464 116.62 143.288C115.432 140.282 114.1 138.248 112.624 137.204L111.058 138.212C112.174 139.004 113.128 140.12 113.938 141.578ZM132.226 149.696L133.468 148.454C132.82 147.446 132.19 146.528 131.578 145.7C131.992 144.224 132.334 142.604 132.604 140.804L130.876 140.498C130.714 141.686 130.498 142.838 130.246 143.918C129.634 143.126 129.058 142.442 128.518 141.866L127.456 142.892V139.598H138.544V149.174C137.896 148.094 137.266 147.086 136.654 146.168C137.158 144.584 137.572 142.802 137.878 140.858L136.114 140.552C135.916 141.866 135.664 143.108 135.358 144.278C134.746 143.414 134.17 142.694 133.648 142.082L132.496 143.198C133.27 144.206 134.026 145.232 134.746 146.294C134.134 147.986 133.378 149.462 132.478 150.758L133.666 152.234C134.53 151.082 135.286 149.732 135.934 148.148C136.438 148.94 136.906 149.75 137.374 150.578L138.544 149.408V151.442C138.544 151.838 138.328 152.036 137.914 152.036L136.258 151.946L136.726 153.764H138.526C139.768 153.764 140.398 153.134 140.398 151.874V137.798H125.602V153.89H127.456V143.09C128.212 144.008 128.968 144.962 129.688 145.934C129.148 147.59 128.464 149.066 127.636 150.326L128.824 151.802C129.634 150.65 130.336 149.282 130.93 147.698C131.362 148.346 131.794 149.012 132.226 149.696ZM147.886 137.294L146.158 138.122C146.788 138.896 147.382 139.778 147.958 140.75H144.214V142.586H150.046V143.018C150.01 143.846 149.92 144.638 149.776 145.358H143.188V147.194H149.236C149.02 147.734 148.75 148.238 148.444 148.706C147.472 150.056 145.618 151.19 142.846 152.09L143.872 153.728C146.644 152.864 148.642 151.622 149.866 150.002C150.298 149.39 150.676 148.688 151 147.932C152.062 150.398 154.438 152.396 158.146 153.908L159.262 152.126C155.698 150.902 153.466 149.264 152.602 147.194H158.812V145.358H151.702C151.828 144.638 151.918 143.846 151.954 143.018V142.586H157.768V140.75H154.438C154.996 139.832 155.464 138.806 155.86 137.672L154.024 137.168C153.538 138.536 152.98 139.742 152.332 140.75H148.786L149.83 140.228C149.2 139.166 148.552 138.194 147.886 137.294Z" fill="#566270" fill-opacity="0.6"/>
<rect x="13" y="202" width="221" height="92" rx="8" fill="#8EC0E4"/>
<rect x="23" y="241" width="44" height="39" rx="4" fill="#D4DFE6"/>
<path d="M43.368 256.576L39 268H41L42.04 265.136H46.824L47.864 268H49.864L45.496 256.576H43.368ZM42.6 263.6L44.408 258.592H44.472L46.264 263.6H42.6Z" fill="#566270" fill-opacity="0.6"/>
<rect x="75" y="241" width="44" height="39" rx="4" fill="#D4DFE6"/>
<path d="M92.12 257.576V269H97.368C98.584 269 99.544 268.776 100.216 268.328C101 267.784 101.4 266.936 101.4 265.784C101.4 265.016 101.208 264.392 100.84 263.944C100.456 263.48 99.896 263.176 99.144 263.032C99.72 262.808 100.152 262.504 100.456 262.088C100.76 261.64 100.92 261.096 100.92 260.456C100.92 259.592 100.616 258.904 100.024 258.392C99.384 257.848 98.488 257.576 97.352 257.576H92.12ZM93.992 259.112H96.888C97.656 259.112 98.2 259.24 98.552 259.496C98.872 259.736 99.048 260.136 99.048 260.68C99.048 261.272 98.872 261.704 98.552 261.976C98.216 262.232 97.656 262.376 96.856 262.376H93.992V259.112ZM93.992 263.912H97.144C97.976 263.912 98.584 264.056 98.968 264.344C99.336 264.632 99.528 265.096 99.528 265.752C99.528 266.392 99.272 266.84 98.76 267.128C98.36 267.352 97.8 267.464 97.096 267.464H93.992V263.912Z" fill="#566270" fill-opacity="0.6"/>
<rect x="127" y="241" width="44" height="39" rx="4" fill="#D4DFE6"/>
<path d="M149.08 256.352C147.256 256.352 145.864 256.944 144.904 258.16C144.056 259.216 143.64 260.608 143.64 262.304C143.64 264.032 144.04 265.408 144.856 266.432C145.784 267.616 147.208 268.224 149.112 268.224C150.344 268.224 151.4 267.872 152.28 267.168C153.224 266.416 153.816 265.376 154.072 264.032H152.248C152.024 264.896 151.64 265.552 151.096 265.984C150.584 266.368 149.912 266.576 149.096 266.576C147.848 266.576 146.92 266.176 146.328 265.408C145.784 264.688 145.512 263.648 145.512 262.304C145.512 260.992 145.784 259.968 146.344 259.232C146.952 258.4 147.848 258 149.048 258C149.848 258 150.504 258.16 151.016 258.512C151.544 258.864 151.896 259.408 152.088 260.16H153.912C153.736 259.008 153.24 258.08 152.408 257.408C151.544 256.704 150.424 256.352 149.08 256.352ZM155.999 256.576L156.255 260.672H157.695L157.935 256.576H155.999Z" fill="#566270" fill-opacity="0.6"/>
<rect x="179" y="241" width="44" height="39" rx="4" fill="#D4DFE6"/>
<path d="M196.12 256.576V268H200.296C202.152 268 203.544 267.488 204.504 266.464C205.416 265.488 205.88 264.096 205.88 262.288C205.88 260.464 205.416 259.072 204.504 258.112C203.544 257.088 202.152 256.576 200.296 256.576H196.12ZM197.992 258.176H199.944C201.368 258.176 202.408 258.496 203.064 259.152C203.704 259.792 204.024 260.848 204.024 262.288C204.024 263.696 203.704 264.736 203.064 265.408C202.408 266.064 201.368 266.4 199.944 266.4H197.992V258.176ZM207.796 256.576L208.052 260.672H209.492L209.732 256.576H207.796Z" fill="#566270" fill-opacity="0.6"/>
<path d="M34.744 217.546H36.578V219.478H34.744V217.546ZM36.578 216.244H34.744V214.284H36.578V216.244ZM34.716 220.794H36.578V223.454C36.578 223.944 36.438 224.196 36.158 224.196C35.822 224.196 35.472 224.168 35.094 224.14L35.444 225.414H36.564C37.46 225.414 37.908 224.91 37.908 223.93V212.968H33.442V219.912C33.428 221.76 33.148 223.286 32.588 224.49L33.694 225.498C34.268 224.252 34.604 222.684 34.716 220.794ZM40.134 219.408H40.246C40.54 220.682 41.086 221.83 41.87 222.852C41.38 223.398 40.806 223.86 40.134 224.252V219.408ZM40.134 224.364L40.834 225.456C41.59 225.05 42.262 224.532 42.822 223.916C43.382 224.462 44.054 224.966 44.838 225.442L45.552 224.196C44.838 223.776 44.208 223.3 43.648 222.768C44.208 221.816 44.614 220.668 44.852 219.338V218.12H40.134V214.284H43.326C43.298 215.166 43.242 215.712 43.172 215.936C43.088 216.132 42.99 216.244 42.85 216.286C42.724 216.314 42.514 216.342 42.22 216.342C41.842 216.342 41.534 216.328 41.31 216.328L41.702 217.574H42.878C43.774 217.574 44.32 217.266 44.488 216.678C44.656 216.062 44.754 214.816 44.754 212.968H38.762V225.47H40.134V224.364ZM41.492 219.408H43.564C43.354 220.262 43.06 221.032 42.682 221.704C42.15 221.018 41.758 220.248 41.492 219.408ZM50.564 212.436C50.004 213.78 48.912 214.914 47.288 215.838L48.17 217C48.702 216.664 49.206 216.314 49.668 215.936C50.2 216.37 50.774 216.776 51.39 217.154C49.962 217.658 48.338 218.036 46.518 218.26L47.19 219.632C49.402 219.296 51.334 218.75 53 218.008C54.736 218.82 56.682 219.338 58.852 219.59L59.51 218.232C57.718 218.064 56.08 217.714 54.61 217.182C55.758 216.51 56.738 215.698 57.564 214.746V213.57H51.614C51.768 213.29 51.908 212.982 52.048 212.66L50.564 212.436ZM52.986 216.482C52.146 216.062 51.362 215.558 50.634 214.97L50.662 214.942H55.394C54.68 215.53 53.882 216.034 52.986 216.482ZM51.922 218.806C51.908 219.282 51.866 219.73 51.782 220.164H47.498V221.48H51.334C51.25 221.62 51.166 221.774 51.068 221.928C50.382 222.866 48.898 223.664 46.63 224.322L47.596 225.512C50.2 224.672 51.838 223.636 52.51 222.39C52.678 222.11 52.818 221.802 52.93 221.48H56.598C56.57 222.642 56.458 223.356 56.276 223.636C56.108 223.902 55.702 224.042 55.044 224.056C54.568 224.042 53.966 224.014 53.224 223.972L53.588 225.288C54.288 225.344 54.876 225.372 55.366 225.372C56.346 225.372 57.032 225.12 57.424 224.63C57.816 224.14 58.026 222.656 58.054 220.164H53.266C53.322 219.744 53.364 219.282 53.364 218.806H51.922Z" fill="#566270" fill-opacity="0.6"/>
<path d="M122.293 217.707C122.683 218.098 123.317 218.098 123.707 217.707L130.071 211.343C130.462 210.953 130.462 210.319 130.071 209.929C129.681 209.538 129.047 209.538 128.657 209.929L123 215.586L117.343 209.929C116.953 209.538 116.319 209.538 115.929 209.929C115.538 210.319 115.538 210.953 115.929 211.343L122.293 217.707ZM122 170V217H124V170H122Z" fill="#566270" fill-opacity="0.6"/>
<path d="M122.293 336.712C122.683 337.103 123.317 337.103 123.707 336.712L130.071 330.348C130.462 329.958 130.462 329.324 130.071 328.934C129.681 328.543 129.047 328.543 128.657 328.934L123 334.591L117.343 328.934C116.953 328.543 116.319 328.543 115.929 328.934C115.538 329.324 115.538 329.958 115.929 330.348L122.293 336.712ZM122 277V336.005H124V277H122Z" fill="#566270" fill-opacity="0.6"/>
<g filter="url(#filter1_d)">
<rect x="416" y="88" width="247" height="368" rx="8" fill="#D4DFE6"/>
</g>
<path d="M512.972 423.534V425.352H515.348C514.754 427.368 513.836 429.15 512.576 430.698L513.386 432.75C514.196 431.49 514.88 430.122 515.438 428.646V436.8H517.31V427.944C517.688 428.574 518.12 429.348 518.624 430.248L519.722 428.592C518.912 427.656 518.102 426.792 517.31 426.018V425.352H519.326V423.534H517.31V420.222H515.438V423.534H512.972ZM518.21 435.648L519.758 437.016C520.604 435.684 521.18 434.28 521.486 432.84C521.81 431.4 521.972 429.672 521.972 427.638V422.544H524.528V434.658C524.528 435.846 525.212 436.458 526.598 436.458H527.408C528.038 436.458 528.506 436.332 528.794 436.098C529.082 435.81 529.262 435.342 529.334 434.658C529.406 433.974 529.46 432.93 529.46 431.562L527.732 431.022C527.732 432.93 527.696 434.028 527.624 434.28C527.588 434.406 527.552 434.514 527.48 434.586C527.408 434.658 527.3 434.694 527.156 434.694H526.616C526.49 434.694 526.436 434.604 526.436 434.442V420.78H520.1V427.638C520.1 429.672 519.974 431.202 519.74 432.228C519.452 433.416 518.93 434.568 518.21 435.648ZM537.38 429.942C537.164 432.426 535.958 434.19 533.726 435.216L534.752 436.854C536.588 435.918 537.866 434.586 538.622 432.876H543.932C543.842 433.866 543.788 434.46 543.752 434.64C543.68 434.82 543.536 434.946 543.32 435.018C543.068 435.09 542.51 435.144 541.628 435.144C541.232 435.144 540.854 435.126 540.458 435.09L540.962 436.782H541.142C542.888 436.782 544.004 436.692 544.49 436.548C544.958 436.404 545.282 436.116 545.444 435.684C545.588 435.252 545.732 433.758 545.84 431.184H539.126C539.198 430.788 539.252 430.374 539.288 429.942H547.046V428.178H541.556C541.412 427.674 541.268 427.206 541.124 426.792L539.126 427.116C539.288 427.44 539.432 427.8 539.576 428.178H534.788V429.942H537.38ZM544.346 423.174V424.884H534.284V423.174H544.346ZM534.284 426.612H546.2V421.428H540.332C540.17 420.924 540.008 420.456 539.846 420.024L537.812 420.348C537.974 420.672 538.136 421.032 538.28 421.428H532.394V427.926C532.376 431.076 531.764 433.65 530.54 435.63L531.944 436.89C533.492 434.388 534.266 431.4 534.284 427.926V426.612ZM555.254 422.148V435H561.158C562.526 435 563.606 434.748 564.362 434.244C565.244 433.632 565.694 432.678 565.694 431.382C565.694 430.518 565.478 429.816 565.064 429.312C564.632 428.79 564.002 428.448 563.156 428.286C563.804 428.034 564.29 427.692 564.632 427.224C564.974 426.72 565.154 426.108 565.154 425.388C565.154 424.416 564.812 423.642 564.146 423.066C563.426 422.454 562.418 422.148 561.14 422.148H555.254ZM557.36 423.876H560.618C561.482 423.876 562.094 424.02 562.49 424.308C562.85 424.578 563.048 425.028 563.048 425.64C563.048 426.306 562.85 426.792 562.49 427.098C562.112 427.386 561.482 427.548 560.582 427.548H557.36V423.876ZM557.36 429.276H560.906C561.842 429.276 562.526 429.438 562.958 429.762C563.372 430.086 563.588 430.608 563.588 431.346C563.588 432.066 563.3 432.57 562.724 432.894C562.274 433.146 561.644 433.272 560.852 433.272H557.36V429.276Z" fill="#566270" fill-opacity="0.6"/>
<rect x="429" y="202" width="221" height="92" rx="8" fill="#8EC0E4"/>
<rect x="439" y="241" width="44" height="39" rx="4" fill="#D4DFE6"/>
<path d="M460.368 256.576L456 268H458L459.04 265.136H463.824L464.864 268H466.864L462.496 256.576H460.368ZM459.6 263.6L461.408 258.592H461.472L463.264 263.6H459.6ZM468.139 256.576L468.395 260.672H469.835L470.075 256.576H468.139Z" fill="#566270" fill-opacity="0.6"/>
<rect x="491" y="241" width="44" height="39" rx="4" fill="#D4DFE6"/>
<path d="M508.12 257.576V269H513.368C514.584 269 515.544 268.776 516.216 268.328C517 267.784 517.4 266.936 517.4 265.784C517.4 265.016 517.208 264.392 516.84 263.944C516.456 263.48 515.896 263.176 515.144 263.032C515.72 262.808 516.152 262.504 516.456 262.088C516.76 261.64 516.92 261.096 516.92 260.456C516.92 259.592 516.616 258.904 516.024 258.392C515.384 257.848 514.488 257.576 513.352 257.576H508.12ZM509.992 259.112H512.888C513.656 259.112 514.2 259.24 514.552 259.496C514.872 259.736 515.048 260.136 515.048 260.68C515.048 261.272 514.872 261.704 514.552 261.976C514.216 262.232 513.656 262.376 512.856 262.376H509.992V259.112ZM509.992 263.912H513.144C513.976 263.912 514.584 264.056 514.968 264.344C515.336 264.632 515.528 265.096 515.528 265.752C515.528 266.392 515.272 266.84 514.76 267.128C514.36 267.352 513.8 267.464 513.096 267.464H509.992V263.912ZM519.327 257.576L519.583 261.672H521.023L521.263 257.576H519.327Z" fill="#566270" fill-opacity="0.6"/>
<rect x="543" y="241" width="44" height="39" rx="4" fill="#D4DFE6"/>
<path d="M565.08 256.352C563.256 256.352 561.864 256.944 560.904 258.16C560.056 259.216 559.64 260.608 559.64 262.304C559.64 264.032 560.04 265.408 560.856 266.432C561.784 267.616 563.208 268.224 565.112 268.224C566.344 268.224 567.4 267.872 568.28 267.168C569.224 266.416 569.816 265.376 570.072 264.032H568.248C568.024 264.896 567.64 265.552 567.096 265.984C566.584 266.368 565.912 266.576 565.096 266.576C563.848 266.576 562.92 266.176 562.328 265.408C561.784 264.688 561.512 263.648 561.512 262.304C561.512 260.992 561.784 259.968 562.344 259.232C562.952 258.4 563.848 258 565.048 258C565.848 258 566.504 258.16 567.016 258.512C567.544 258.864 567.896 259.408 568.088 260.16H569.912C569.736 259.008 569.24 258.08 568.408 257.408C567.544 256.704 566.424 256.352 565.08 256.352Z" fill="#566270" fill-opacity="0.6"/>
<rect x="595" y="241" width="44" height="39" rx="4" fill="#D4DFE6"/>
<path d="M612.12 256.576V268H616.296C618.152 268 619.544 267.488 620.504 266.464C621.416 265.488 621.88 264.096 621.88 262.288C621.88 260.464 621.416 259.072 620.504 258.112C619.544 257.088 618.152 256.576 616.296 256.576H612.12ZM613.992 258.176H615.944C617.368 258.176 618.408 258.496 619.064 259.152C619.704 259.792 620.024 260.848 620.024 262.288C620.024 263.696 619.704 264.736 619.064 265.408C618.408 266.064 617.368 266.4 615.944 266.4H613.992V258.176Z" fill="#566270" fill-opacity="0.6"/>
<rect x="429" y="109" width="221" height="74" rx="8" fill="#8EC0E4"/>
<rect x="429" y="318" width="221" height="74" rx="8" fill="#8EC0E4"/>
<rect x="429" y="314" width="221" height="92" rx="8" fill="#8EC0E4"/>
<rect x="439" y="353" width="44" height="39" rx="4" fill="#D4DFE6"/>
<path d="M460.368 368.576L456 380H458L459.04 377.136H463.824L464.864 380H466.864L462.496 368.576H460.368ZM459.6 375.6L461.408 370.592H461.472L463.264 375.6H459.6ZM468.139 368.576L468.395 372.672H469.835L470.075 368.576H468.139Z" fill="#566270" fill-opacity="0.6"/>
<rect x="491" y="353" width="44" height="39" rx="4" fill="#D4DFE6"/>
<path d="M508.12 369.576V381H513.368C514.584 381 515.544 380.776 516.216 380.328C517 379.784 517.4 378.936 517.4 377.784C517.4 377.016 517.208 376.392 516.84 375.944C516.456 375.48 515.896 375.176 515.144 375.032C515.72 374.808 516.152 374.504 516.456 374.088C516.76 373.64 516.92 373.096 516.92 372.456C516.92 371.592 516.616 370.904 516.024 370.392C515.384 369.848 514.488 369.576 513.352 369.576H508.12ZM509.992 371.112H512.888C513.656 371.112 514.2 371.24 514.552 371.496C514.872 371.736 515.048 372.136 515.048 372.68C515.048 373.272 514.872 373.704 514.552 373.976C514.216 374.232 513.656 374.376 512.856 374.376H509.992V371.112ZM509.992 375.912H513.144C513.976 375.912 514.584 376.056 514.968 376.344C515.336 376.632 515.528 377.096 515.528 377.752C515.528 378.392 515.272 378.84 514.76 379.128C514.36 379.352 513.8 379.464 513.096 379.464H509.992V375.912ZM519.327 369.576L519.583 373.672H521.023L521.263 369.576H519.327Z" fill="#566270" fill-opacity="0.6"/>
<rect x="543" y="353" width="44" height="39" rx="4" fill="#D4DFE6"/>
<path d="M565.08 368.352C563.256 368.352 561.864 368.944 560.904 370.16C560.056 371.216 559.64 372.608 559.64 374.304C559.64 376.032 560.04 377.408 560.856 378.432C561.784 379.616 563.208 380.224 565.112 380.224C566.344 380.224 567.4 379.872 568.28 379.168C569.224 378.416 569.816 377.376 570.072 376.032H568.248C568.024 376.896 567.64 377.552 567.096 377.984C566.584 378.368 565.912 378.576 565.096 378.576C563.848 378.576 562.92 378.176 562.328 377.408C561.784 376.688 561.512 375.648 561.512 374.304C561.512 372.992 561.784 371.968 562.344 371.232C562.952 370.4 563.848 370 565.048 370C565.848 370 566.504 370.16 567.016 370.512C567.544 370.864 567.896 371.408 568.088 372.16H569.912C569.736 371.008 569.24 370.08 568.408 369.408C567.544 368.704 566.424 368.352 565.08 368.352Z" fill="#566270" fill-opacity="0.6"/>
<rect x="595" y="353" width="44" height="39" rx="4" fill="#D4DFE6"/>
<path d="M612.12 368.576V380H616.296C618.152 380 619.544 379.488 620.504 378.464C621.416 377.488 621.88 376.096 621.88 374.288C621.88 372.464 621.416 371.072 620.504 370.112C619.544 369.088 618.152 368.576 616.296 368.576H612.12ZM613.992 370.176H615.944C617.368 370.176 618.408 370.496 619.064 371.152C619.704 371.792 620.024 372.848 620.024 374.288C620.024 375.696 619.704 376.736 619.064 377.408C618.408 378.064 617.368 378.4 615.944 378.4H613.992V370.176Z" fill="#566270" fill-opacity="0.6"/>
<path d="M448.98 326.004V336H452.634C454.258 336 455.476 335.552 456.316 334.656C457.114 333.802 457.52 332.584 457.52 331.002C457.52 329.406 457.114 328.188 456.316 327.348C455.476 326.452 454.258 326.004 452.634 326.004H448.98ZM450.618 327.404H452.326C453.572 327.404 454.482 327.684 455.056 328.258C455.616 328.818 455.896 329.742 455.896 331.002C455.896 332.234 455.616 333.144 455.056 333.732C454.482 334.306 453.572 334.6 452.326 334.6H450.618V327.404ZM459.056 326.004V336H463.648C464.712 336 465.552 335.804 466.14 335.412C466.826 334.936 467.176 334.194 467.176 333.186C467.176 332.514 467.008 331.968 466.686 331.576C466.35 331.17 465.86 330.904 465.202 330.778C465.706 330.582 466.084 330.316 466.35 329.952C466.616 329.56 466.756 329.084 466.756 328.524C466.756 327.768 466.49 327.166 465.972 326.718C465.412 326.242 464.628 326.004 463.634 326.004H459.056ZM460.694 327.348H463.228C463.9 327.348 464.376 327.46 464.684 327.684C464.964 327.894 465.118 328.244 465.118 328.72C465.118 329.238 464.964 329.616 464.684 329.854C464.39 330.078 463.9 330.204 463.2 330.204H460.694V327.348ZM460.694 331.548H463.452C464.18 331.548 464.712 331.674 465.048 331.926C465.37 332.178 465.538 332.584 465.538 333.158C465.538 333.718 465.314 334.11 464.866 334.362C464.516 334.558 464.026 334.656 463.41 334.656H460.694V331.548Z" fill="#566270" fill-opacity="0.6"/>
<path d="M513.576 140.336L512.244 140.984C512.568 141.506 512.892 142.082 513.18 142.73H510.714V144.512H520.92V142.73H518.382C518.742 142.1 519.066 141.416 519.354 140.66L518.454 140.336H520.596V138.644H516.69C516.51 138.068 516.348 137.528 516.168 137.06L514.224 137.384C514.44 137.78 514.62 138.194 514.8 138.644H511.146V140.336H513.576ZM514.962 142.73C514.602 141.866 514.224 141.074 513.81 140.336H517.482C517.176 141.164 516.816 141.974 516.402 142.73H514.962ZM506.952 153.71C508.176 153.71 508.806 153.098 508.806 151.874V146.906C509.22 146.708 509.634 146.51 510.066 146.294V144.386C509.652 144.602 509.238 144.818 508.806 145.034V142.28H510.102V140.462H508.806V137.276H506.898V140.462H504.9V142.28H506.898V145.826C506.124 146.114 505.332 146.33 504.522 146.51L505.008 148.4C505.638 148.184 506.268 147.968 506.898 147.734V151.388C506.898 151.784 506.7 152 506.304 152C505.872 152 505.422 151.964 504.954 151.892L505.368 153.71H506.952ZM513.972 144.71C513.828 145.124 513.648 145.556 513.432 146.024H510.48V147.824H512.532C512.172 148.436 511.794 149.084 511.362 149.75C512.514 150.2 513.576 150.65 514.584 151.082C513.522 151.568 512.1 151.964 510.336 152.288L511.056 153.98C513.558 153.476 515.412 152.828 516.618 152C518.022 152.648 519.174 153.278 520.11 153.854L521.136 152.36C520.11 151.784 519.048 151.262 517.95 150.776C518.634 149.948 519.12 148.976 519.39 147.824H521.226V146.024H515.34C515.484 145.664 515.646 145.304 515.79 144.926L513.972 144.71ZM517.626 147.824C517.338 148.688 516.87 149.408 516.24 150.02C515.394 149.66 514.53 149.318 513.666 149.012C513.918 148.634 514.17 148.238 514.422 147.824H517.626ZM529.938 141.578C528.75 146.114 526.284 149.588 522.558 152.036L523.71 153.656C527.31 151.316 529.704 148.004 530.928 143.738L530.982 143.9C532.908 148.724 535.266 151.982 538.056 153.638L539.226 152.144C536.526 150.416 534.33 147.464 532.62 143.288C531.432 140.282 530.1 138.248 528.624 137.204L527.058 138.212C528.174 139.004 529.128 140.12 529.938 141.578ZM548.226 149.696L549.468 148.454C548.82 147.446 548.19 146.528 547.578 145.7C547.992 144.224 548.334 142.604 548.604 140.804L546.876 140.498C546.714 141.686 546.498 142.838 546.246 143.918C545.634 143.126 545.058 142.442 544.518 141.866L543.456 142.892V139.598H554.544V149.174C553.896 148.094 553.266 147.086 552.654 146.168C553.158 144.584 553.572 142.802 553.878 140.858L552.114 140.552C551.916 141.866 551.664 143.108 551.358 144.278C550.746 143.414 550.17 142.694 549.648 142.082L548.496 143.198C549.27 144.206 550.026 145.232 550.746 146.294C550.134 147.986 549.378 149.462 548.478 150.758L549.666 152.234C550.53 151.082 551.286 149.732 551.934 148.148C552.438 148.94 552.906 149.75 553.374 150.578L554.544 149.408V151.442C554.544 151.838 554.328 152.036 553.914 152.036L552.258 151.946L552.726 153.764H554.526C555.768 153.764 556.398 153.134 556.398 151.874V137.798H541.602V153.89H543.456V143.09C544.212 144.008 544.968 144.962 545.688 145.934C545.148 147.59 544.464 149.066 543.636 150.326L544.824 151.802C545.634 150.65 546.336 149.282 546.93 147.698C547.362 148.346 547.794 149.012 548.226 149.696ZM563.886 137.294L562.158 138.122C562.788 138.896 563.382 139.778 563.958 140.75H560.214V142.586H566.046V143.018C566.01 143.846 565.92 144.638 565.776 145.358H559.188V147.194H565.236C565.02 147.734 564.75 148.238 564.444 148.706C563.472 150.056 561.618 151.19 558.846 152.09L559.872 153.728C562.644 152.864 564.642 151.622 565.866 150.002C566.298 149.39 566.676 148.688 567 147.932C568.062 150.398 570.438 152.396 574.146 153.908L575.262 152.126C571.698 150.902 569.466 149.264 568.602 147.194H574.812V145.358H567.702C567.828 144.638 567.918 143.846 567.954 143.018V142.586H573.768V140.75H570.438C570.996 139.832 571.464 138.806 571.86 137.672L570.024 137.168C569.538 138.536 568.98 139.742 568.332 140.75H564.786L565.83 140.228C565.2 139.166 564.552 138.194 563.886 137.294Z" fill="#566270" fill-opacity="0.6"/>
<path d="M538.293 217.707C538.683 218.098 539.317 218.098 539.707 217.707L546.071 211.343C546.462 210.953 546.462 210.319 546.071 209.929C545.681 209.538 545.047 209.538 544.657 209.929L539 215.586L533.343 209.929C532.953 209.538 532.319 209.538 531.929 209.929C531.538 210.319 531.538 210.953 531.929 211.343L538.293 217.707ZM538 170V217H540V170H538Z" fill="#566270" fill-opacity="0.6"/>
<path d="M538.293 341.726C538.683 342.116 539.317 342.116 539.707 341.726L546.071 335.362C546.462 334.971 546.462 334.338 546.071 333.948C545.681 333.557 545.047 333.557 544.657 333.948L539 339.604L533.343 333.948C532.953 333.557 532.319 333.557 531.929 333.948C531.538 334.338 531.538 334.971 531.929 335.362L538.293 341.726ZM538 286.982V341.019H540V286.982H538Z" fill="#566270" fill-opacity="0.6"/>
<path d="M450.744 217.546H452.578V219.478H450.744V217.546ZM452.578 216.244H450.744V214.284H452.578V216.244ZM450.716 220.794H452.578V223.454C452.578 223.944 452.438 224.196 452.158 224.196C451.822 224.196 451.472 224.168 451.094 224.14L451.444 225.414H452.564C453.46 225.414 453.908 224.91 453.908 223.93V212.968H449.442V219.912C449.428 221.76 449.148 223.286 448.588 224.49L449.694 225.498C450.268 224.252 450.604 222.684 450.716 220.794ZM456.134 219.408H456.246C456.54 220.682 457.086 221.83 457.87 222.852C457.38 223.398 456.806 223.86 456.134 224.252V219.408ZM456.134 224.364L456.834 225.456C457.59 225.05 458.262 224.532 458.822 223.916C459.382 224.462 460.054 224.966 460.838 225.442L461.552 224.196C460.838 223.776 460.208 223.3 459.648 222.768C460.208 221.816 460.614 220.668 460.852 219.338V218.12H456.134V214.284H459.326C459.298 215.166 459.242 215.712 459.172 215.936C459.088 216.132 458.99 216.244 458.85 216.286C458.724 216.314 458.514 216.342 458.22 216.342C457.842 216.342 457.534 216.328 457.31 216.328L457.702 217.574H458.878C459.774 217.574 460.32 217.266 460.488 216.678C460.656 216.062 460.754 214.816 460.754 212.968H454.762V225.47H456.134V224.364ZM457.492 219.408H459.564C459.354 220.262 459.06 221.032 458.682 221.704C458.15 221.018 457.758 220.248 457.492 219.408ZM466.564 212.436C466.004 213.78 464.912 214.914 463.288 215.838L464.17 217C464.702 216.664 465.206 216.314 465.668 215.936C466.2 216.37 466.774 216.776 467.39 217.154C465.962 217.658 464.338 218.036 462.518 218.26L463.19 219.632C465.402 219.296 467.334 218.75 469 218.008C470.736 218.82 472.682 219.338 474.852 219.59L475.51 218.232C473.718 218.064 472.08 217.714 470.61 217.182C471.758 216.51 472.738 215.698 473.564 214.746V213.57H467.614C467.768 213.29 467.908 212.982 468.048 212.66L466.564 212.436ZM468.986 216.482C468.146 216.062 467.362 215.558 466.634 214.97L466.662 214.942H471.394C470.68 215.53 469.882 216.034 468.986 216.482ZM467.922 218.806C467.908 219.282 467.866 219.73 467.782 220.164H463.498V221.48H467.334C467.25 221.62 467.166 221.774 467.068 221.928C466.382 222.866 464.898 223.664 462.63 224.322L463.596 225.512C466.2 224.672 467.838 223.636 468.51 222.39C468.678 222.11 468.818 221.802 468.93 221.48H472.598C472.57 222.642 472.458 223.356 472.276 223.636C472.108 223.902 471.702 224.042 471.044 224.056C470.568 224.042 469.966 224.014 469.224 223.972L469.588 225.288C470.288 225.344 470.876 225.372 471.366 225.372C472.346 225.372 473.032 225.12 473.424 224.63C473.816 224.14 474.026 222.656 474.054 220.164H469.266C469.322 219.744 469.364 219.282 469.364 218.806H467.922Z" fill="#566270" fill-opacity="0.6"/>
<rect x="34" y="8" width="179" height="51" rx="8" fill="#D4DFE6"/>
<path d="M89.528 31.702H91.886V34.186H89.528V31.702ZM91.886 30.028H89.528V27.508H91.886V30.028ZM89.492 35.878H91.886V39.298C91.886 39.928 91.706 40.252 91.346 40.252C90.914 40.252 90.464 40.216 89.978 40.18L90.428 41.818H91.868C93.02 41.818 93.596 41.17 93.596 39.91V25.816H87.854V34.744C87.836 37.12 87.476 39.082 86.756 40.63L88.178 41.926C88.916 40.324 89.348 38.308 89.492 35.878ZM96.458 34.096H96.602C96.98 35.734 97.682 37.21 98.69 38.524C98.06 39.226 97.322 39.82 96.458 40.324V34.096ZM96.458 40.468L97.358 41.872C98.33 41.35 99.194 40.684 99.914 39.892C100.634 40.594 101.498 41.242 102.506 41.854L103.424 40.252C102.506 39.712 101.696 39.1 100.976 38.416C101.696 37.192 102.218 35.716 102.524 34.006V32.44H96.458V27.508H100.562C100.526 28.642 100.454 29.344 100.364 29.632C100.256 29.884 100.13 30.028 99.95 30.082C99.788 30.118 99.518 30.154 99.14 30.154C98.654 30.154 98.258 30.136 97.97 30.136L98.474 31.738H99.986C101.138 31.738 101.84 31.342 102.056 30.586C102.272 29.794 102.398 28.192 102.398 25.816H94.694V41.89H96.458V40.468ZM98.204 34.096H100.868C100.598 35.194 100.22 36.184 99.734 37.048C99.05 36.166 98.546 35.176 98.204 34.096ZM109.868 25.132C109.148 26.86 107.744 28.318 105.656 29.506L106.79 31C107.474 30.568 108.122 30.118 108.716 29.632C109.4 30.19 110.138 30.712 110.93 31.198C109.094 31.846 107.006 32.332 104.666 32.62L105.53 34.384C108.374 33.952 110.858 33.25 113 32.296C115.232 33.34 117.734 34.006 120.524 34.33L121.37 32.584C119.066 32.368 116.96 31.918 115.07 31.234C116.546 30.37 117.806 29.326 118.868 28.102V26.59H111.218C111.416 26.23 111.596 25.834 111.776 25.42L109.868 25.132ZM112.982 30.334C111.902 29.794 110.894 29.146 109.958 28.39L109.994 28.354H116.078C115.16 29.11 114.134 29.758 112.982 30.334ZM111.614 33.322C111.596 33.934 111.542 34.51 111.434 35.068H105.926V36.76H110.858C110.75 36.94 110.642 37.138 110.516 37.336C109.634 38.542 107.726 39.568 104.81 40.414L106.052 41.944C109.4 40.864 111.506 39.532 112.37 37.93C112.586 37.57 112.766 37.174 112.91 36.76H117.626C117.59 38.254 117.446 39.172 117.212 39.532C116.996 39.874 116.474 40.054 115.628 40.072C115.016 40.054 114.242 40.018 113.288 39.964L113.756 41.656C114.656 41.728 115.412 41.764 116.042 41.764C117.302 41.764 118.184 41.44 118.688 40.81C119.192 40.18 119.462 38.272 119.498 35.068H113.342C113.414 34.528 113.468 33.934 113.468 33.322H111.614ZM132.908 27.148L127.994 40H130.244L131.414 36.778H136.796L137.966 40H140.216L135.302 27.148H132.908ZM132.044 35.05L134.078 29.416H134.15L136.166 35.05H132.044ZM147.465 27.148V40H153.369C154.737 40 155.817 39.748 156.573 39.244C157.455 38.632 157.905 37.678 157.905 36.382C157.905 35.518 157.689 34.816 157.275 34.312C156.843 33.79 156.213 33.448 155.367 33.286C156.015 33.034 156.501 32.692 156.843 32.224C157.185 31.72 157.365 31.108 157.365 30.388C157.365 29.416 157.023 28.642 156.357 28.066C155.637 27.454 154.629 27.148 153.351 27.148H147.465ZM149.571 28.876H152.829C153.693 28.876 154.305 29.02 154.701 29.308C155.061 29.578 155.259 30.028 155.259 30.64C155.259 31.306 155.061 31.792 154.701 32.098C154.323 32.386 153.693 32.548 152.793 32.548H149.571V28.876ZM149.571 34.276H153.117C154.053 34.276 154.737 34.438 155.169 34.762C155.583 35.086 155.799 35.608 155.799 36.346C155.799 37.066 155.511 37.57 154.935 37.894C154.485 38.146 153.855 38.272 153.063 38.272H149.571V34.276Z" fill="#566270" fill-opacity="0.6"/>
<rect x="448" y="8" width="179" height="51" rx="8" fill="#D4DFE6"/>
<path d="M503.528 31.702H505.886V34.186H503.528V31.702ZM505.886 30.028H503.528V27.508H505.886V30.028ZM503.492 35.878H505.886V39.298C505.886 39.928 505.706 40.252 505.346 40.252C504.914 40.252 504.464 40.216 503.978 40.18L504.428 41.818H505.868C507.02 41.818 507.596 41.17 507.596 39.91V25.816H501.854V34.744C501.836 37.12 501.476 39.082 500.756 40.63L502.178 41.926C502.916 40.324 503.348 38.308 503.492 35.878ZM510.458 34.096H510.602C510.98 35.734 511.682 37.21 512.69 38.524C512.06 39.226 511.322 39.82 510.458 40.324V34.096ZM510.458 40.468L511.358 41.872C512.33 41.35 513.194 40.684 513.914 39.892C514.634 40.594 515.498 41.242 516.506 41.854L517.424 40.252C516.506 39.712 515.696 39.1 514.976 38.416C515.696 37.192 516.218 35.716 516.524 34.006V32.44H510.458V27.508H514.562C514.526 28.642 514.454 29.344 514.364 29.632C514.256 29.884 514.13 30.028 513.95 30.082C513.788 30.118 513.518 30.154 513.14 30.154C512.654 30.154 512.258 30.136 511.97 30.136L512.474 31.738H513.986C515.138 31.738 515.84 31.342 516.056 30.586C516.272 29.794 516.398 28.192 516.398 25.816H508.694V41.89H510.458V40.468ZM512.204 34.096H514.868C514.598 35.194 514.22 36.184 513.734 37.048C513.05 36.166 512.546 35.176 512.204 34.096ZM523.868 25.132C523.148 26.86 521.744 28.318 519.656 29.506L520.79 31C521.474 30.568 522.122 30.118 522.716 29.632C523.4 30.19 524.138 30.712 524.93 31.198C523.094 31.846 521.006 32.332 518.666 32.62L519.53 34.384C522.374 33.952 524.858 33.25 527 32.296C529.232 33.34 531.734 34.006 534.524 34.33L535.37 32.584C533.066 32.368 530.96 31.918 529.07 31.234C530.546 30.37 531.806 29.326 532.868 28.102V26.59H525.218C525.416 26.23 525.596 25.834 525.776 25.42L523.868 25.132ZM526.982 30.334C525.902 29.794 524.894 29.146 523.958 28.39L523.994 28.354H530.078C529.16 29.11 528.134 29.758 526.982 30.334ZM525.614 33.322C525.596 33.934 525.542 34.51 525.434 35.068H519.926V36.76H524.858C524.75 36.94 524.642 37.138 524.516 37.336C523.634 38.542 521.726 39.568 518.81 40.414L520.052 41.944C523.4 40.864 525.506 39.532 526.37 37.93C526.586 37.57 526.766 37.174 526.91 36.76H531.626C531.59 38.254 531.446 39.172 531.212 39.532C530.996 39.874 530.474 40.054 529.628 40.072C529.016 40.054 528.242 40.018 527.288 39.964L527.756 41.656C528.656 41.728 529.412 41.764 530.042 41.764C531.302 41.764 532.184 41.44 532.688 40.81C533.192 40.18 533.462 38.272 533.498 35.068H527.342C527.414 34.528 527.468 33.934 527.468 33.322H525.614ZM548.834 26.896C546.782 26.896 545.216 27.562 544.136 28.93C543.182 30.118 542.714 31.684 542.714 33.592C542.714 35.536 543.164 37.084 544.082 38.236C545.126 39.568 546.728 40.252 548.87 40.252C550.256 40.252 551.444 39.856 552.434 39.064C553.496 38.218 554.162 37.048 554.45 35.536H552.398C552.146 36.508 551.714 37.246 551.102 37.732C550.526 38.164 549.77 38.398 548.852 38.398C547.448 38.398 546.404 37.948 545.738 37.084C545.126 36.274 544.82 35.104 544.82 33.592C544.82 32.116 545.126 30.964 545.756 30.136C546.44 29.2 547.448 28.75 548.798 28.75C549.698 28.75 550.436 28.93 551.012 29.326C551.606 29.722 552.002 30.334 552.218 31.18H554.27C554.072 29.884 553.514 28.84 552.578 28.084C551.606 27.292 550.346 26.896 548.834 26.896ZM562.432 27.148V40H567.13C569.218 40 570.784 39.424 571.864 38.272C572.89 37.174 573.412 35.608 573.412 33.574C573.412 31.522 572.89 29.956 571.864 28.876C570.784 27.724 569.218 27.148 567.13 27.148H562.432ZM564.538 28.948H566.734C568.336 28.948 569.506 29.308 570.244 30.046C570.964 30.766 571.324 31.954 571.324 33.574C571.324 35.158 570.964 36.328 570.244 37.084C569.506 37.822 568.336 38.2 566.734 38.2H564.538V28.948Z" fill="#566270" fill-opacity="0.6"/>
<path d="M122.293 118.707C122.683 119.098 123.317 119.098 123.707 118.707L130.071 112.343C130.462 111.953 130.462 111.319 130.071 110.929C129.681 110.538 129.047 110.538 128.657 110.929L123 116.586L117.343 110.929C116.953 110.538 116.319 110.538 115.929 110.929C115.538 111.319 115.538 111.953 115.929 112.343L122.293 118.707ZM122 52V118H124V52H122Z" fill="#566270" fill-opacity="0.6"/>
<path d="M539.293 118.707C539.683 119.098 540.317 119.098 540.707 118.707L547.071 112.343C547.462 111.953 547.462 111.319 547.071 110.929C546.681 110.538 546.047 110.538 545.657 110.929L540 116.586L534.343 110.929C533.953 110.538 533.319 110.538 532.929 110.929C532.538 111.319 532.538 111.953 532.929 112.343L539.293 118.707ZM539 52V118H541V52H539Z" fill="#566270" fill-opacity="0.6"/>
<path d="M234 364L244 369.774V358.226L234 364ZM433 364L423 358.226V369.774L433 364ZM243 365H424V363H243V365Z" fill="#6E7783" fill-opacity="0.4"/>
<path d="M314.06 358.8C315.668 359.424 317.228 360.24 318.764 361.272L319.232 360.528C317.816 359.616 316.244 358.836 314.54 358.164C314.648 357.996 314.756 357.816 314.864 357.624H319.076V356.808H315.224C315.488 356.064 315.632 355.212 315.668 354.264V352.848H314.828V354.264C314.792 355.212 314.624 356.064 314.312 356.808H308.936V357.624H313.892C313.772 357.816 313.652 357.996 313.508 358.164C312.62 359.124 311.06 359.904 308.828 360.48L309.308 361.212C311.504 360.636 313.088 359.832 314.06 358.8ZM310.532 354.492L310.1 355.14C310.916 355.464 311.72 355.92 312.488 356.496L312.932 355.812C312.212 355.308 311.408 354.864 310.532 354.492ZM311.612 352.776L311.168 353.424C312.008 353.76 312.836 354.228 313.64 354.828L314.084 354.144C313.34 353.604 312.512 353.148 311.612 352.776ZM318.872 351.372H314.528C314.372 350.904 314.216 350.484 314.06 350.124L313.172 350.268C313.352 350.604 313.52 350.964 313.664 351.372H309.104V353.676H309.944V352.176H318.032V353.676H318.872V351.372ZM324.44 351.096H320.984V360.228H321.824V359.136H323.6V359.94H324.44V351.096ZM321.824 358.332V355.44H323.6V358.332H321.824ZM321.824 354.636V351.888H323.6V354.636H321.824ZM326.168 354.672L325.46 355.116C326.18 356.22 326.744 357.228 327.164 358.128L327.884 357.624C327.488 356.784 326.912 355.8 326.168 354.672ZM328.904 361.08C329.648 361.08 330.02 360.696 330.02 359.94V353.232H331.496V352.404H330.02V350.292H329.144V352.404H324.992V353.232H329.144V359.724C329.144 360.096 328.964 360.288 328.616 360.288C327.98 360.288 327.32 360.264 326.624 360.24L326.804 361.08H328.904ZM335.336 351.84H342.752V351.084H335.732C335.852 350.808 335.96 350.52 336.056 350.232L335.204 350.088C334.76 351.432 333.92 352.56 332.684 353.496L333.2 354.168C333.728 353.772 334.184 353.34 334.592 352.872V356.46H336.128C335.48 357.324 334.472 358.032 333.092 358.584L333.536 359.316C334.16 359.028 334.724 358.704 335.216 358.368C335.864 358.932 336.596 359.412 337.412 359.808C336.176 360.168 334.688 360.384 332.948 360.456L333.296 361.212C335.312 361.092 337.016 360.78 338.432 360.252C339.8 360.78 341.372 361.08 343.124 361.164L343.328 360.372C341.912 360.324 340.616 360.132 339.464 359.796C340.448 359.292 341.24 358.668 341.84 357.9V357.276H336.464C336.68 357.012 336.884 356.748 337.064 356.46H341.816V352.668H334.76C334.964 352.404 335.156 352.128 335.336 351.84ZM338.444 359.46C337.472 359.076 336.608 358.584 335.84 357.984H340.772C340.184 358.572 339.404 359.064 338.444 359.46ZM340.976 355.764H335.444V354.876H340.976V355.764ZM335.444 354.228V353.352H340.976V354.228H335.444ZM345.872 352.524H347.552V354.072H344.648V354.876H347.552V356.136H345.188V360.456H346.028V356.94H347.552V361.212H348.416V356.94H349.928V359.124C349.928 359.436 349.748 359.592 349.412 359.592L348.824 359.556L349.04 360.372H349.676C350.396 360.372 350.756 360.012 350.756 359.304V356.136H348.416V354.876H351.008V354.072H348.416V352.524H350.66V351.72H348.416V350.232H347.552V351.72H346.16C346.256 351.396 346.328 351.048 346.388 350.664L345.572 350.532C345.404 351.672 345.02 352.56 344.42 353.208L345.116 353.712C345.404 353.4 345.656 353.004 345.872 352.524ZM351.716 351.312V358.728H352.556V351.312H351.716ZM353.912 361.092C354.644 361.092 355.016 360.708 355.016 359.964V350.232H354.164V359.748C354.164 360.132 353.972 360.324 353.612 360.324C353.084 360.324 352.532 360.3 351.956 360.264L352.148 361.092H353.912Z" fill="#566270" fill-opacity="0.6"/>
<path d="M233 260L243 265.774V254.226L233 260ZM432 260L422 254.226V265.774L432 260ZM242 261H423V259H242V261Z" fill="#6E7783" fill-opacity="0.4"/>
<path d="M292.084 247.124C291.532 248.984 290.644 250.64 289.42 252.08L289.696 252.968C290.152 252.476 290.572 251.96 290.956 251.42V258.224H291.832V250.016C292.252 249.224 292.6 248.396 292.888 247.508L292.084 247.124ZM299.956 258.2L300.544 257.504C299.248 256.652 298.156 255.716 297.292 254.684C298.42 253.052 299.188 251.06 299.596 248.72V247.952H293.392V248.78H294.016C294.208 250.94 294.94 252.896 296.224 254.648C295.312 255.8 294.172 256.748 292.792 257.492L293.38 258.212C294.712 257.456 295.852 256.508 296.788 255.356C297.628 256.364 298.684 257.312 299.956 258.2ZM296.728 253.964C295.624 252.428 295 250.7 294.832 248.78H298.72C298.36 250.784 297.7 252.512 296.728 253.964ZM310.588 247.664H302.86V251.588C302.86 252.308 303.244 252.68 304.012 252.68H310.9C311.404 252.668 311.752 252.488 311.92 252.128C312.028 251.888 312.112 251.504 312.16 250.952L311.38 250.7C311.332 251.204 311.272 251.528 311.188 251.66C311.092 251.804 310.912 251.888 310.66 251.9H304.324C303.916 251.9 303.712 251.696 303.712 251.288V250.484H310.588V247.664ZM303.712 249.704V248.444H309.748V249.704H303.712ZM301.528 254.468V255.248H304.528C304.288 256.34 303.532 257.072 302.26 257.432L302.716 258.176C304.18 257.672 305.068 256.688 305.368 255.248H308.632V258.128H309.496V255.248H312.496V254.468H309.496V253.148H308.632V254.468H305.476C305.488 254.192 305.5 253.748 305.5 253.136H304.636C304.636 253.7 304.624 254.144 304.612 254.468H301.528ZM318.628 247.172V251.108H316.384V248.108H315.508V251.108H313.672V251.948H318.7V255.572H319.564V251.948H324.328V251.108H319.504V249.452H323.14V248.624H319.504V247.172H318.628ZM322.54 252.824C321.22 255.884 318.484 257.42 314.332 257.42L314.644 258.248C318.916 258.236 321.82 256.568 323.332 253.244L322.54 252.824ZM316.552 252.488C315.856 253.544 314.992 254.468 313.972 255.26L314.512 255.956C315.568 255.128 316.444 254.156 317.164 253.04L316.552 252.488ZM332.152 247.232V250.508H329.584V258.14H330.448V255.572H334.78V256.748C334.78 257.12 334.588 257.312 334.216 257.312L332.872 257.288L333.1 258.128H334.504C335.248 258.128 335.632 257.732 335.632 256.94V250.508H333.04V247.232H332.152ZM330.448 253.46H334.78V254.828H330.448V253.46ZM334.78 252.716H330.448V251.336H334.78V252.716ZM329.764 247.544L329.044 247.892C329.524 248.492 329.968 249.176 330.376 249.932L331.072 249.596C330.652 248.852 330.22 248.168 329.764 247.544ZM335.44 247.484C335.104 248.204 334.636 248.936 334.06 249.68L334.744 250.028C335.32 249.32 335.788 248.588 336.148 247.82L335.44 247.484ZM327.796 253.424C327.22 254.888 326.56 256.316 325.792 257.72L326.584 258.068C327.304 256.712 327.952 255.26 328.552 253.724L327.796 253.424ZM326.62 247.376L326.008 247.964C326.896 248.612 327.592 249.212 328.096 249.788L328.708 249.176C328.144 248.576 327.448 247.976 326.62 247.376ZM326.272 250.196L325.66 250.784C326.5 251.432 327.148 252.044 327.628 252.608L328.24 251.996C327.712 251.396 327.064 250.796 326.272 250.196ZM339.292 248.084V253.952H346.804V248.084H342.844C342.988 247.82 343.108 247.544 343.204 247.244L342.304 247.124C342.22 247.46 342.1 247.772 341.932 248.084H339.292ZM345.964 253.208H340.132V252.2H345.964V253.208ZM340.132 251.504V250.52H345.964V251.504H340.132ZM340.132 249.824V248.84H345.964V249.824H340.132ZM338.692 254.768C338.464 255.704 338.092 256.568 337.576 257.336L338.308 257.804C338.824 256.988 339.22 256.04 339.508 254.936L338.692 254.768ZM344.476 258.02C344.932 258.02 345.28 257.924 345.496 257.744C345.736 257.516 345.904 256.904 346 255.896L345.172 255.632C345.124 256.412 345.016 256.88 344.872 257.048C344.776 257.168 344.584 257.24 344.308 257.24H341.644C341.368 257.24 341.236 257.096 341.236 256.82V254.708H340.36V257C340.36 257.672 340.696 258.02 341.392 258.02H344.476ZM342.868 254.276L342.232 254.672C342.856 255.296 343.336 255.86 343.696 256.376L344.356 255.92C344.008 255.452 343.516 254.9 342.868 254.276ZM346.744 254.552L346.072 254.972C346.804 255.92 347.392 256.784 347.824 257.564L348.508 257.084C348.1 256.364 347.512 255.512 346.744 254.552ZM350.032 247.7V258.212H350.872V248.516H352.816C352.504 249.524 352.072 250.652 351.496 251.9C352.348 252.908 352.78 253.82 352.78 254.636C352.78 254.888 352.696 255.068 352.552 255.176C352.408 255.272 352.108 255.344 351.676 255.368C351.556 255.368 351.4 255.344 351.208 255.32L351.496 256.196C352.336 256.184 352.912 256.04 353.248 255.752C353.488 255.524 353.62 255.152 353.62 254.636C353.56 253.772 353.14 252.824 352.36 251.768C352.864 250.592 353.296 249.464 353.668 248.384V247.7H350.032ZM356.272 247.28C356.26 249.608 356.068 251.516 355.708 253.016C355.228 254.792 354.256 256.28 352.792 257.456L353.368 258.14C355.048 256.82 356.116 255.128 356.572 253.064C356.62 252.86 356.656 252.656 356.704 252.44C357.424 254.684 358.504 256.568 359.944 258.092L360.568 257.36C358.864 255.692 357.664 253.424 356.968 250.544C357.064 249.56 357.124 248.468 357.124 247.28H356.272ZM370.768 258.092C371.584 258.092 371.992 257.66 371.992 256.82V247.28H371.128V256.616C371.128 257.084 370.9 257.324 370.468 257.324C369.988 257.324 369.472 257.3 368.944 257.264L369.136 258.092H370.768ZM368.572 248.192V255.776H369.412V248.192H368.572ZM361.864 247.712V248.552H363.724C363.472 250.52 362.752 252.056 361.576 253.184L361.984 253.988C362.308 253.688 362.608 253.352 362.884 252.992C363.676 253.424 364.372 253.892 364.984 254.396C364.216 255.644 363.148 256.616 361.792 257.312L362.212 258.08C364.876 256.724 366.508 254.348 367.096 250.964V250.196H364.24C364.384 249.68 364.492 249.128 364.576 248.552H367.684V247.712H361.864ZM363.316 252.332C363.556 251.924 363.772 251.492 363.964 251.012H366.268C366.076 251.984 365.776 252.872 365.38 253.676C364.78 253.208 364.096 252.764 363.316 252.332Z" fill="#566270" fill-opacity="0.6"/>
<defs>
<filter id="filter0_d" x="0" y="88" width="255" height="376" filterUnits="userSpaceOnUse" color-interpolation-filters="sRGB">
<feFlood flood-opacity="0" result="BackgroundImageFix"/>
<feColorMatrix in="SourceAlpha" type="matrix" values="0 0 0 0 0 0 0 0 0 0 0 0 0 0 0 0 0 0 127 0"/>
<feOffset dx="4" dy="4"/>
<feGaussianBlur stdDeviation="2"/>
<feColorMatrix type="matrix" values="0 0 0 0 0 0 0 0 0 0 0 0 0 0 0 0 0 0 0.25 0"/>
<feBlend mode="normal" in2="BackgroundImageFix" result="effect1_dropShadow"/>
<feBlend mode="normal" in="SourceGraphic" in2="effect1_dropShadow" result="shape"/>
</filter>
<filter id="filter1_d" x="416" y="88" width="255" height="376" filterUnits="userSpaceOnUse" color-interpolation-filters="sRGB">
<feFlood flood-opacity="0" result="BackgroundImageFix"/>
<feColorMatrix in="SourceAlpha" type="matrix" values="0 0 0 0 0 0 0 0 0 0 0 0 0 0 0 0 0 0 127 0"/>
<feOffset dx="4" dy="4"/>
<feGaussianBlur stdDeviation="2"/>
<feColorMatrix type="matrix" values="0 0 0 0 0 0 0 0 0 0 0 0 0 0 0 0 0 0 0.25 0"/>
<feBlend mode="normal" in2="BackgroundImageFix" result="effect1_dropShadow"/>
<feBlend mode="normal" in="SourceGraphic" in2="effect1_dropShadow" result="shape"/>
</filter>
</defs>
</svg>
